<?xml version="1.0" encoding="utf-8"?>
<svg version="1.1" xmlns="http://www.w3.org/2000/svg" x="0px" y="0px" viewBox="0 0 1000 1000" xml:space="preserve">
<style type="text/css">
  .st12{fill:#FFFFFF;}
  .st126{fill:#6ABD45;}
</style>
<path class="st126" d="M487.44,540.66c-0.76-0.39-1.57-0.52-2.36-0.37c-1.44,0.28-2.57,1.46-2.8,2.94c-0.24,1.5,0.48,2.88,1.88,3.6
	c13.77,7.16,17.84,18.04,11.16,29.84c-5.29,9.34-16.06,16.79-27.45,18.98c-1.03,0.2-2.08,0.35-3.11,0.46
	c-8.24,0.84-13.3-3.03-16.1-6.43c-5.44-6.61-7-16.95-3.79-25.16c3.07-7.85,10.25-14.1,17.88-15.56c4.49-0.86,8.97-0.02,12.93,2.44
	c5.94,3.69,8.1,10.37,5.49,17.03c-1.03,2.63-3.61,4.53-7.07,5.19c-1.16,0.22-2.34,0.29-3.5,0.19c-2.55-0.21-4.13-1.39-4.24-3.16
	c-0.09-1.56,1.06-3.49,3.82-4.02c0.27-0.05,0.56-0.09,0.85-0.11c0.14-0.01,0.28-0.03,0.41-0.05c1.63-0.31,2.65-1.71,2.42-3.32
	c-0.23-1.64-1.66-2.76-3.39-2.65c-0.59,0.04-1.18,0.11-1.75,0.23c-5.04,0.97-9.08,4.71-9.6,8.9c-0.46,3.75,1.85,7.04,6.35,9
	c3.25,1.42,6.71,1.84,9.99,1.21c4.41-0.85,8.4-3.57,10.95-7.46c2.72-4.15,3.53-9.23,2.2-13.91c-3.3-11.72-14.74-18.15-27.81-15.64
	c-3.17,0.61-6.22,1.73-9.05,3.34c-15.54,8.8-18.52,26.98-13.44,40.4c4.79,12.66,15.88,18.32,30.43,15.52v0
	c18.03-3.46,34.63-18.32,37-33.12C506.98,561.04,504.84,549.69,487.44,540.66z"/>
<path class="st12" d="M502.84,603.79c-1.81-3.26-3.53-4.06-5.12-4.82c-1.98-1.07-4.2-0.52-4.86,0.25c-1.19,1.37-0.73,5.35,0.94,7.88
	c2.25,3.42,5.49,3.42,7.26,2.45C502.96,608.52,503.65,605.23,502.84,603.79z"/>
<path class="st12" d="M515.38,591.33c-2.69-2.66-4.58-2.98-6.32-3.29c-2.22-0.52-4.19,0.6-4.6,1.51c-0.74,1.63,0.85,5.33,3.19,7.33
	c3.16,2.7,6.27,1.86,7.7,0.47C516.88,595.85,516.58,592.51,515.38,591.33z"/>
<path class="st12" d="M523.26,575.89c-3.29-1.97-5.21-1.85-6.98-1.75c-2.28,0.01-3.91,1.54-4.08,2.52c-0.3,1.75,2.19,4.98,4.97,6.39
	c3.75,1.9,6.56,0.37,7.59-1.31C525.87,579.93,524.72,576.76,523.26,575.89z"/>
<path class="st12" d="M528.02,558.9c-3.85-0.57-5.56,0.25-7.14,1.01c-2.09,0.86-2.95,2.88-2.7,3.84c0.45,1.72,4.09,3.75,7.24,4
	c4.24,0.34,6.18-2.12,6.42-4.04C532.11,561.64,529.73,559.16,528.02,558.9z"/>
<path class="st12" d="M509.94,536.23c-2.97,2.38-3.44,4.14-3.87,5.77c-0.68,2.06,0.38,3.99,1.31,4.44c1.67,0.8,5.68-0.48,7.93-2.57
	c3.04-2.81,2.35-5.81,0.97-7.24C514.79,535.1,511.25,535.18,509.94,536.23z"/>
<path class="st12" d="M485.41,528.89c-0.15,2.75,0.62,3.89,1.34,4.95c0.84,1.41,2.49,1.85,3.23,1.6c1.32-0.45,2.64-3.17,2.59-5.4
	c-0.06-3.01-2.14-4.19-3.67-4.21C487.25,525.81,485.48,527.67,485.41,528.89z"/>
<path class="st12" d="M522.77,543.97c-3.71,1.11-4.85,2.58-5.91,3.92c-1.47,1.65-1.28,3.82-0.6,4.57c1.22,1.35,5.43,1.62,8.36,0.52
	c3.95-1.49,4.53-4.51,3.84-6.33C527.71,544.69,524.42,543.47,522.77,543.97z"/>
<path class="st12" d="M498.49,529.17c-2.01,2.52-2.04,4.07-2.08,5.51c-0.16,1.84,1.11,3.27,1.98,3.48c1.56,0.37,4.65-1.41,6.12-3.56
	c1.99-2.9,0.81-5.27-0.63-6.23C502.32,527.36,499.38,528.06,498.49,529.17z"/>
<path class="st12" d="M485.4,611.06c-0.62-3.15-1.82-4.24-2.94-5.25c-1.35-1.38-3.34-1.46-4.11-0.98c-1.36,0.85-2.07,4.26-1.38,6.77
	c0.93,3.39,3.63,4.18,5.36,3.81C484.21,615.01,485.67,612.45,485.4,611.06z"/>
<path class="st12" d="M468.88,615.29c0.39-3.18-0.43-4.56-1.18-5.83c-0.87-1.69-2.75-2.32-3.63-2.08c-1.57,0.43-3.3,3.5-3.41,6.09
	c-0.16,3.5,2.17,5,3.94,5.13C466.51,618.74,468.71,616.7,468.88,615.29z"/>
<path class="st12" d="M452.37,613.08c0.75-3.12,0.09-4.57-0.5-5.92c-0.66-1.77-2.46-2.59-3.36-2.44c-1.61,0.27-3.68,3.14-4.09,5.7
	c-0.56,3.46,1.58,5.2,3.33,5.51C449.62,616.27,452.04,614.46,452.37,613.08z"/>
<path class="st12" d="M437.58,605.36c1.48-2.88,1.18-4.44,0.92-5.88c-0.23-1.86-1.78-3.05-2.7-3.09c-1.63-0.08-4.33,2.28-5.35,4.68
	c-1.37,3.25,0.3,5.4,1.93,6.08C434.15,607.88,436.93,606.64,437.58,605.36z"/>
<path class="st12" d="M426.83,591.5c3.08-1.33,3.9-2.7,4.67-3.97c1.08-1.57,0.68-3.42,0.01-4.01c-1.2-1.04-4.87-0.86-7.28,0.39
	c-3.25,1.68-3.4,4.34-2.6,5.85C422.49,591.37,425.47,592.09,426.83,591.5z"/>
<g>
	<path class="st12" d="M402.93,689.87h-1.86v-9.51h-5.04v9.51h-1.86v-19.79h1.86v8.7h5.04v-8.7h1.86V689.87z"/>
	<path class="st12" d="M415.11,688.47c0,0.41-0.14,0.75-0.42,1.01c-0.28,0.26-0.64,0.39-1.08,0.39h-5.85
		c-0.44,0-0.79-0.13-1.07-0.39c-0.28-0.26-0.41-0.6-0.41-1.01v-16.98c0-0.41,0.14-0.75,0.41-1.01c0.28-0.26,0.63-0.39,1.07-0.39
		h5.85c0.44,0,0.79,0.13,1.08,0.39c0.28,0.26,0.42,0.6,0.42,1.01V688.47z M413.25,688.32v-16.68h-5.12v16.68H413.25z"/>
	<path class="st12" d="M428.79,689.87h-1.75v-12.53c0-0.18,0.06-0.7,0.19-1.55l-3.42,12.23h-0.37l-3.42-12.23
		c0.12,0.87,0.19,1.39,0.19,1.55v12.53h-1.75v-19.79h1.72l3.39,12.87c0.02,0.07,0.04,0.26,0.05,0.57c0-0.13,0.02-0.32,0.05-0.57
		l3.39-12.87h1.72V689.87z"/>
	<path class="st12" d="M439,689.87h-6.87v-19.79h6.79v1.56h-4.93v7.38h4.49v1.58h-4.49v7.71H439V689.87z"/>
	<path class="st12" d="M456.1,688.47c0,0.41-0.14,0.75-0.42,1.01c-0.28,0.26-0.64,0.39-1.08,0.39h-5.85c-0.44,0-0.79-0.13-1.07-0.39
		c-0.28-0.26-0.41-0.6-0.41-1.01v-16.98c0-0.41,0.14-0.75,0.41-1.01c0.28-0.26,0.63-0.39,1.07-0.39h5.85c0.44,0,0.79,0.13,1.08,0.39
		c0.28,0.26,0.42,0.6,0.42,1.01V688.47z M454.24,688.32v-16.68h-5.12v16.68H454.24z"/>
	<path class="st12" d="M466.17,671.64h-4.88v7.51h4.49v1.58h-4.49v9.14h-1.86v-19.79h6.74V671.64z"/>
	<path class="st12" d="M482.48,688.47c0,0.41-0.14,0.75-0.43,1.01c-0.29,0.26-0.65,0.39-1.08,0.39h-5.39
		c-0.44,0-0.79-0.13-1.07-0.39c-0.28-0.26-0.41-0.6-0.41-1.01v-16.98c0-0.41,0.14-0.75,0.41-1.01c0.28-0.26,0.63-0.39,1.07-0.39
		h5.39c0.44,0,0.8,0.13,1.08,0.39c0.28,0.26,0.43,0.6,0.43,1.01v4.6h-1.87v-4.45h-4.65v16.68h4.65v-4.87h1.87V688.47z"/>
	<path class="st12" d="M494.63,689.87h-1.95l-3.89-10.59l0.25-0.35h3.31v-7.28h-4.77v18.23h-1.86v-19.79h7
		c0.44,0,0.79,0.13,1.07,0.39c0.28,0.26,0.41,0.6,0.41,1.01V679c0,0.95-0.68,1.43-2.03,1.43c-0.13,0-0.33-0.01-0.59-0.02
		c-0.26-0.01-0.45-0.02-0.56-0.02C492.23,683.54,493.43,686.71,494.63,689.87z"/>
	<path class="st12" d="M504.28,689.87h-6.87v-19.79h6.79v1.56h-4.93v7.38h4.49v1.58h-4.49v7.71h5.01V689.87z"/>
	<path class="st12" d="M515.61,689.87h-1.84l-0.74-4.4h-4.16l-0.74,4.4h-1.79v-0.05l3.73-19.79h1.83L515.61,689.87z M512.79,683.92
		l-1.83-10.72l-1.84,10.72H512.79z"/>
	<path class="st12" d="M525.32,671.64h-3.23v18.23h-1.86v-18.23h-3.26v-1.56h8.35V671.64z"/>
	<path class="st12" d="M529.47,689.87h-1.86v-19.79h1.86V689.87z"/>
	<path class="st12" d="M541.79,688.47c0,0.41-0.14,0.75-0.42,1.01s-0.64,0.39-1.08,0.39h-5.85c-0.44,0-0.79-0.13-1.07-0.39
		c-0.27-0.26-0.41-0.6-0.41-1.01v-16.98c0-0.41,0.14-0.75,0.41-1.01c0.28-0.26,0.63-0.39,1.07-0.39h5.85c0.44,0,0.79,0.13,1.08,0.39
		c0.28,0.26,0.42,0.6,0.42,1.01V688.47z M539.93,688.32v-16.68h-5.12v16.68H539.93z"/>
	<path class="st12" d="M553.75,689.87h-1.28l-5.59-14.55v14.55h-1.75v-19.79h1.39l5.48,14.3v-14.3h1.75V689.87z"/>
	<path class="st12" d="M565.25,688.47c0,0.41-0.14,0.75-0.41,1.01c-0.27,0.26-0.63,0.39-1.06,0.39h-5.27
		c-0.44,0-0.79-0.13-1.08-0.39c-0.28-0.26-0.42-0.6-0.42-1.01v-5.02h1.86v4.87h4.52v-4.72l-5.77-6.6c-0.4-0.46-0.6-0.96-0.6-1.5
		v-4.01c0-0.41,0.14-0.75,0.42-1.01c0.28-0.26,0.64-0.39,1.08-0.39h5.27c0.44,0,0.79,0.13,1.06,0.39c0.27,0.26,0.41,0.6,0.41,1.01
		v4.6h-1.86v-4.45h-4.52v4.17l5.8,6.6c0.38,0.44,0.57,0.93,0.57,1.48V688.47z"/>
</g>
<path class="st126" d="M499.13,231.71c0.14,8.79,5.71,15.79,13.16,20.63c13.17,8.56,29.14,12.52,44.67,15.88
	c-0.05-0.12-0.1-0.23-0.16-0.35c-0.48-1.09-0.92-2.2-1.33-3.32c-10.86-2.41-21.46-6.73-30.39-12.73
	c-6.73-4.51-14.39-10.9-16.07-19.44c-1.21-6.16-0.2-12.19,2.13-17.73c-1.97-0.41-6.24,0.48-6.62,1.04
	C501.34,220.31,499.04,226.08,499.13,231.71z"/>
<path class="st126" d="M532.72,242.21c4.64,3.11,10.51,3.8,16.96,3.22c-1.87-5.81-4.24-11.35-8.21-16.05
	c-4.78-5.66-8.98-8.5-13.82-10.4C522.07,225.23,526.05,237.74,532.72,242.21z"/>
<path class="st126" d="M509.01,232.37c1.68,8.54,9.34,14.93,16.07,19.44c8.94,6,19.53,10.31,30.39,12.73
	c-2.3-6.19-3.76-12.8-5.8-19.12c-6.44,0.58-12.32-0.1-16.96-3.22c-6.66-4.47-10.65-16.99-5.07-23.23c-4.34-1.7-9.2-2.62-15.46-4.12
	c-0.35-0.08-0.7-0.16-1.04-0.23C508.81,220.19,507.8,226.22,509.01,232.37z"/>
<path class="st12" d="M395.3,219.39h1.68l8.47-11.22h46.72l9.25,11.22h1.61v-4.6h5.28c-3.74-4.61-6.47-11.14-11.19-15.06
	c-8.37-6.94-9.76-11.36-20.92-5.68c-11.15,5.68-52.99,11.36-54.38,15.77c-0.47,1.49-1.43,3.21-2.56,4.96h16.05V219.39z"/>
<polygon class="st12" points="486.47,284.22 486.47,284.22 486.47,284.22 "/>
<polygon class="st12" points="478.67,286.44 478.67,286.44 478.67,286.44 "/>
<path class="st12" d="M466.59,252.13c0-0.03,0-0.05-0.01-0.08l0,0C466.58,252.07,466.59,252.1,466.59,252.13z"/>
<path class="st12" d="M466.58,257.69c0-0.01,0-0.01,0-0.02C466.58,257.68,466.58,257.69,466.58,257.69L466.58,257.69z"/>
<path class="st12" d="M467.46,271.97c-0.01,0.03-0.03,0.06-0.04,0.08C467.44,272.03,467.45,272,467.46,271.97z"/>
<path class="st12" d="M466.63,257.13c-0.01,0.18-0.03,0.36-0.05,0.54C466.6,257.49,466.62,257.31,466.63,257.13z"/>
<path class="st12" d="M466.59,252.13c0.02,0.24,0.05,0.47,0.06,0.71C466.64,252.6,466.61,252.36,466.59,252.13z"/>
<path class="st12" d="M486.47,270.29v-0.02c-0.59-0.15-1.17-0.32-1.75-0.52C485.3,269.95,485.88,270.13,486.47,270.29z"/>
<path class="st12" d="M471.24,231.8c0.01-0.06,0.03-0.12,0.04-0.17C471.27,231.69,471.26,231.75,471.24,231.8z"/>
<path class="st12" d="M371.05,228.58c0.9-3.42,3.34-6.27,6.58-7.85c-4.87,0.9-8.65,4.68-9.28,9.39
	C369.28,229.58,370.19,229.07,371.05,228.58C371.05,228.58,371.05,228.58,371.05,228.58z"/>
<polygon class="st12" points="408.19,209.31 406.06,209.31 398.45,219.39 400.58,219.39 "/>
<path class="st12" d="M402.8,283.21c-7.55-7.14-11.89-16.51-12.35-26.56c-0.03-0.59-0.05-1.19-0.05-1.78c0-0.6,0.02-1.19,0.05-1.78
	c0.46-10.05,4.8-19.42,12.35-26.56c0.66-0.62,1.35-1.23,2.07-1.83l-0.65-0.81c-1.51,1.09-2.91,2.25-4.18,3.44
	c-16.05,15.19-16.05,39.9,0,55.08c1.29,1.22,2.66,2.35,4.09,3.39h1.67C404.76,284.99,403.76,284.12,402.8,283.21z"/>
<polygon class="st12" points="451.34,212.72 459.65,222.8 461.73,222.8 453.43,212.72 "/>
<path class="st12" d="M481.66,219.67c-0.09,0.01-0.18,0.03-0.27,0.04c0.09,0.02,0.18,0.05,0.27,0.07V219.67z"/>
<path class="st126" d="M450.04,290.35c-5.89,2.93-12.58,4.6-19.68,4.6c-5.42,0-10.68-0.97-15.58-2.8c-2.59-0.74-5.09-1.73-7.48-2.94
	h-41.45V231.5c0-0.47,0.04-0.93,0.1-1.38c-2.71,1.58-5.63,3.48-8.03,6.2c-5.58,6.31-12.55,14.51-11.16,26.5
	c0.43,3.69,0.59,7.38,0.62,10.73l-0.59,12.95c-0.02,0.19-0.03,0.29-0.03,0.29h0.02c0,0-0.67,3.4-0.2,4.42
	c3.47,7.55,18.31,15.14,26.67,22.08c8.37,6.94,8.37,8.2,16.03,6.31c7.67-1.89,20.22-6.94,31.38-4.42c1.71,0.39,3.21,0.71,4.59,1.02
	c3.68-2.93,7.47-5.73,11.44-8.33c10.15-6.65,21.01-12.79,32.46-17.52H450.04z"/>
<polygon class="st12" points="452.25,288.35 454.59,288.35 453.42,287.77 "/>
<polygon class="st12" points="367.96,283.29 367.96,287.21 370.38,287.21 370.64,285.77 "/>
<path class="st126" d="M712.74,537.86l1.02-0.14l-0.04-4l-2.87-1.43l-3.4,1.69l0.65-3.58l-2.75-2.54l3.8-0.52l1.7-3.26l1.7,3.26
	l1.11,0.15l-0.04-4.08c-97.96-37.04-98.49-181.02-2.21-219.63l0.16,0.02l7.99-61.1l-36.19,33.92H563.09
	c2.6,5.08,4.83,7.1,10.21,8.22c0.65,0.14,1.34,0.25,2.06,0.35l-2.28-2.1l4.02-0.55l1.8-3.45l1.8,3.45l4.02,0.55l-2.91,2.68l0,0.02
	c0.13,0.01,0.25,0.02,0.38,0.03c3.5,0.25,7.18,0.52,10.48,1.2l0.23-1.25l-2.91-2.68l4.02-0.55l1.8-3.45l1.8,3.45l4.02,0.55
	l-2.91,2.68l0.69,3.79l-0.25-0.12c0.99,0.64,1.83,1.4,2.5,2.31l95.49,0.09c-108.09,42.56-107.72,199.96,1.02,241.77h-77.15v0h-12.09
	c-1.28,157.84-254.74,157.74-255.98,0c-3.94,0-69.9,0-89.72,0l1.82,3.48l4.19,0.58l-3.03,2.79l0.72,3.95l-3.75-1.86l-3.75,1.86
	l0.72-3.95l-3.03-2.79l4.19-0.58l1.82-3.48c-2.44,0-4.17,0-4.97,0c9.75-3.75,18.62-8.44,26.63-13.89l-4.67-2.32l-5.15,2.56
	l0.98-5.43l-4.17-3.84l5.76-0.79l2.58-4.94l2.58,4.94l5.76,0.79l-4.17,3.84l0.89,4.92c12.81-8.79,23.38-19.52,31.7-31.54l-5.05-2.51
	l-5.15,2.56l0.98-5.43l-4.17-3.84l5.76-0.79l2.58-4.94l2.58,4.94l5.76,0.79l-4.17,3.84l0.96,5.27
	c43.19-62.54,25.55-159.46-52.87-193.93l2.48,4.76l5.76,0.79l-4.17,3.84l0.98,5.43l-5.15-2.56l-5.15,2.56l0.98-5.43l-4.17-3.84
	l5.76-0.79l2.52-4.83c-1.89-0.83-3.81-1.63-5.77-2.39l86.31,0.08c-0.33-1.28-0.12-3.2,0.17-4.76l0.04-0.42l0.1-2.17l-1.76,1.62
	l0.69,3.79l-3.6-1.79l-3.6,1.79l0.69-3.79l-2.91-2.68l4.02-0.55l1.8-3.45l1.8,3.45l2.92,0.4l0.28-6.31h-77.85l-36.83-32.67
	l7.37,56.3l0.29-0.03v0.32c107.84,33.68,107.79,191.59,0,225.27v19.25h103.33c4.04,42.79,29.67,79.78,66.48,101.15l-60.31,45.14
	l-0.34,8.28H611.3l-0.68-8.28L551.9,647.4c15.38-8.58,28.88-19.86,39.77-33.15l-3.22-1.6l-3.27,1.63l0.62-3.45l-2.65-2.44l3.66-0.5
	l1.64-3.14l1.64,3.14l3.66,0.5l-2.65,2.44l0.61,3.38c15.96-19.47,26.32-43.25,28.76-69.15h93.37l-0.06-6.24L712.74,537.86z
	 M617.05,289.56l-3.6-1.79l-3.6,1.79l0.69-3.79l-2.91-2.68l4.02-0.55l1.8-3.45l1.8,3.45l4.02,0.55l-2.91,2.68L617.05,289.56z
	 M636.24,289.56l-3.6-1.79l-3.6,1.79l0.69-3.79l-2.91-2.68l4.02-0.55l1.8-3.45l1.8,3.45l4.02,0.55l-2.91,2.68L636.24,289.56z
	 M654.51,289.56l-3.6-1.79l-3.6,1.79l0.69-3.79l-2.91-2.68l4.02-0.55l1.8-3.45l1.8,3.45l4.02,0.55l-2.91,2.68L654.51,289.56z
	 M672.77,289.56l-3.6-1.79l-3.6,1.79l0.69-3.79l-2.91-2.68l4.02-0.55l1.8-3.45l1.8,3.45l4.02,0.55l-2.91,2.68L672.77,289.56z
	 M692.97,289.45l-3.6-1.8l-3.61,1.78l0.7-3.79l-2.05-1.9v-0.91l3.17-0.43l1.81-3.45l1.79,3.46l4.03,0.57l-2.92,2.68L692.97,289.45z
	 M322.29,282.53l1.8-3.45l1.8,3.45l4.02,0.55l-2.91,2.68l0.69,3.79l-3.6-1.79l-3.6,1.79l0.69-3.79l-2.91-2.68L322.29,282.53z
	 M306.43,282.53l1.8-3.45l1.8,3.45l4.02,0.55l-2.91,2.68l0.69,3.79l-3.6-1.79l-3.6,1.79l0.69-3.79l-2.91-2.68L306.43,282.53z
	 M291.21,282.53l1.8-3.45l1.8,3.45l4.02,0.55l-2.91,2.68l0.69,3.79l-3.6-1.79l-3.6,1.79l0.69-3.79l-2.91-2.68L291.21,282.53z
	 M276.19,282.53l1.8-3.45l1.8,3.45l4.02,0.55l-2.91,2.68l0.69,3.79l-3.6-1.79l-3.6,1.79l0.69-3.79l-2.91-2.68L276.19,282.53z
	 M260.04,282.4l1.81-3.45l1.79,3.46l3.26,0.46v0.81l-2.15,1.97l0.68,3.8l-3.6-1.8l-3.61,1.78l0.7-3.79l-2.91-2.7L260.04,282.4z
	 M236.32,262.06l-0.64-3.11l-3.07-1.26l2.92-1.54l0.32-3.15l2.45,2.15l3.26-0.69l-1.41,2.87l1.7,2.73l-3.32-0.38L236.32,262.06z
	 M242.79,266.9l1.81-3.45l1.79,3.46l4.03,0.57l-2.92,2.68l0.68,3.8l-3.6-1.8l-3.61,1.78l0.7-3.79l-2.91-2.7L242.79,266.9z
	 M244.21,282.77l1.81-3.45l1.79,3.46l4.03,0.57l-2.92,2.68l0.68,3.8l-3.6-1.8l-3.61,1.78l0.7-3.79l-2.91-2.7L244.21,282.77z
	 M249.98,301.81l-3.6-1.8l-3.61,1.78l0.7-3.79l-2.91-2.7l4.03-0.54l1.81-3.45l1.79,3.46l4.03,0.57l-2.92,2.68L249.98,301.81z
	 M333.88,425.28l-5.15-2.56l-5.15,2.56l0.98-5.43l-4.17-3.84l5.76-0.79l2.58-4.94l2.58,4.94l5.76,0.79l-4.17,3.84L333.88,425.28z
	 M332.9,399.85l0.98,5.43l-5.15-2.56l-5.15,2.56l0.98-5.43l-4.17-3.84l5.76-0.79l2.58-4.94l2.58,4.94l5.76,0.79L332.9,399.85z
	 M281.44,317.14l-5.15,2.56l0.98-5.43l-4.17-3.84l5.76-0.79l2.58-4.94l2.58,4.94l5.76,0.79l-4.17,3.84l0.98,5.43L281.44,317.14z
	 M291.09,332.98l0.98-5.43l-4.17-3.84l5.76-0.79l2.58-4.94l2.58,4.94l5.76,0.79l-4.17,3.84l0.98,5.43l-5.15-2.56L291.09,332.98z
	 M302.71,348.78l0.98-5.43l-4.17-3.84l5.76-0.79l2.58-4.94l2.58,4.94l5.76,0.79l-4.17,3.84l0.98,5.43l-5.15-2.56L302.71,348.78z
	 M309.59,356.79l5.76-0.79l2.58-4.94l2.58,4.94l5.76,0.79l-4.17,3.84l0.98,5.43l-5.15-2.56l-5.15,2.56l0.98-5.43L309.59,356.79z
	 M316.17,376.01l5.76-0.79l2.58-4.94l2.58,4.94l5.76,0.79l-4.17,3.84l0.98,5.43l-5.15-2.56l-5.15,2.56l0.98-5.43L316.17,376.01z
	 M324.04,435.78l2.58-4.94l2.58,4.94l5.76,0.79l-4.17,3.84l0.98,5.43l-5.15-2.56l-5.15,2.56l0.98-5.43l-4.17-3.84L324.04,435.78z
	 M317.7,457.86l2.58-4.94l2.58,4.94l5.76,0.79l-4.17,3.84l0.98,5.43l-5.15-2.56l-5.15,2.56l0.98-5.43l-4.17-3.84L317.7,457.86z
	 M294.44,494.9l2.58-4.94l2.58,4.94l5.76,0.79l-4.17,3.84l0.98,5.43l-5.15-2.56l-5.15,2.56l0.98-5.43l-4.17-3.84L294.44,494.9z
	 M259.46,521.41l2.06-3.95l2.06,3.95l4.6,0.63l-3.33,3.07l0.79,4.34l-4.12-2.05l-4.12,2.05l0.79-4.34l-3.33-3.07L259.46,521.41z
	 M251.8,539.86l-5.15-2.56l-5.15,2.56l0.98-5.43l-4.17-3.84l5.76-0.79l2.58-4.94l2.58,4.94l5.76,0.79l-4.17,3.84L251.8,539.86z
	 M281.73,544.93l-3.75-1.86l-3.75,1.86l0.72-3.95l-3.03-2.79l4.19-0.58l1.87-3.59l1.87,3.59l4.19,0.58l-3.03,2.79L281.73,544.93z
	 M297.3,544.62l-3.64-1.81l-3.64,1.81l0.7-3.83l-2.94-2.72l4.07-0.56l1.82-3.49l1.82,3.49l4.07,0.56l-2.94,2.72L297.3,544.62z
	 M311.56,544.3l-3.37-1.67l-3.37,1.67l0.64-3.55l-2.72-2.51l3.76-0.52l1.68-3.23l1.68,3.23l3.76,0.52l-2.72,2.51L311.56,544.3z
	 M324.85,544.62l-3.45-1.72l-3.45,1.72l0.66-3.63l-2.79-2.57l3.86-0.53l1.72-3.31l1.72,3.31l3.86,0.53l-2.79,2.57L324.85,544.62z
	 M338.18,543.43l-3.04-1.51l-3.04,1.51l0.58-3.2l-2.46-2.27l3.4-0.47l1.52-2.91l1.52,2.91l3.4,0.47l-2.46,2.27L338.18,543.43z
	 M535.13,645.91l1.61-3.09l1.61,3.09l3.6,0.49l-2.6,2.4l0.61,3.39l-3.22-1.6l-3.22,1.6l0.61-3.39l-2.6-2.4L535.13,645.91z
	 M522.45,650.91l1.61-3.09l1.61,3.09l3.6,0.49l-2.6,2.4l0.61,3.39l-3.22-1.6l-3.22,1.6l0.61-3.39l-2.6-2.4L522.45,650.91z
	 M508.05,653.95l1.73-3.33l1.73,3.33l3.88,0.53l-2.81,2.59l0.66,3.65l-3.47-1.73l-3.47,1.73l0.66-3.65l-2.81-2.59L508.05,653.95z
	 M494.96,655.91l1.61-3.09l1.61,3.09l3.6,0.49l-2.6,2.4l0.61,3.39l-3.22-1.6l-3.22,1.6l0.61-3.39l-2.6-2.4L494.96,655.91z
	 M480.17,656.91l1.61-3.09l1.61,3.09l3.6,0.49l-2.6,2.4l0.61,3.39l-3.22-1.6l-3.22,1.6l0.61-3.39l-2.6-2.4L480.17,656.91z
	 M467.48,655.91l1.61-3.09l1.61,3.09l3.6,0.49l-2.6,2.4l0.61,3.39l-3.22-1.6l-3.22,1.6l0.61-3.39l-2.6-2.4L467.48,655.91z
	 M453.38,653.83l1.69-3.25l1.69,3.25l3.79,0.52l-2.74,2.53l0.65,3.57l-3.39-1.69l-3.39,1.69l0.65-3.57l-2.74-2.53L453.38,653.83z
	 M440.33,650.99l1.53-2.94l1.53,2.94l3.42,0.47l-2.48,2.28l0.58,3.23l-3.06-1.52l-3.06,1.52l0.58-3.23l-2.48-2.28L440.33,650.99z
	 M428.7,646.99l1.53-2.94l1.53,2.94l3.42,0.47l-2.48,2.28l0.58,3.23l-3.06-1.52l-3.06,1.52l0.58-3.23l-2.48-2.28L428.7,646.99z
	 M416.94,642.64l1.56-3l1.56,3l3.5,0.48l-2.53,2.33l0.6,3.3l-3.13-1.56l-3.13,1.56l0.6-3.3l-2.53-2.33L416.94,642.64z
	 M345.44,537.53l1.47-2.83l1.47,2.83l3.3,0.45l-2.39,2.2l0.56,3.11l-2.95-1.47l-2.95,1.47l0.56-3.11l-2.39-2.2L345.44,537.53z
	 M342.57,549.68l3.52-0.48l1.57-3.01l1.57,3.01l3.52,0.48l-2.54,2.35l0.6,3.31l-3.14-1.56l-3.14,1.56l0.6-3.31L342.57,549.68z
	 M346.63,567.26l0.6-3.31l-2.54-2.35l3.52-0.48l1.57-3.01l1.57,3.01l3.52,0.48l-2.54,2.35l0.6,3.31l-3.14-1.56L346.63,567.26z
	 M351.71,579.94l0.54-2.97l-2.28-2.1l3.15-0.43l1.41-2.7l1.41,2.7l3.15,0.43l-2.28,2.1l0.54,2.97l-2.82-1.4L351.71,579.94z
	 M357.04,592.27l0.54-2.95l-2.27-2.09l3.13-0.43l1.4-2.68l1.4,2.68l3.13,0.43l-2.27,2.09l0.53,2.95l-2.8-1.39L357.04,592.27z
	 M363.18,601.79l0.47-2.61l-2-1.85l2.77-0.38l1.24-2.37l1.24,2.37l2.77,0.38l-2,1.85l0.47,2.61l-2.47-1.23L363.18,601.79z
	 M372,609.56l-2.47,1.23l0.47-2.61l-2-1.85l2.77-0.38l1.24-2.37l1.24,2.37l2.77,0.38l-2,1.85l0.47,2.61L372,609.56z M379.92,618.88
	l-2.8,1.39l0.54-2.95l-2.27-2.09l3.13-0.43l1.4-2.68l1.4,2.68l3.13,0.43l-2.27,2.09l0.53,2.95L379.92,618.88z M391.18,628.27
	l-2.8-1.39l-2.8,1.39l0.54-2.95l-2.27-2.09l3.13-0.43l1.4-2.68l1.4,2.68l3.13,0.43l-2.27,2.09L391.18,628.27z M400.69,636.27
	l-2.8-1.39l-2.8,1.39l0.54-2.95l-2.27-2.09l3.13-0.43l1.4-2.68l1.4,2.68l3.13,0.43l-2.27,2.09L400.69,636.27z M404.81,642.74
	l0.6-3.3l-2.53-2.33l3.5-0.48l1.56-3l1.56,3l3.5,0.48l-2.53,2.33l0.6,3.3l-3.13-1.56L404.81,642.74z M403.19,652.31l1.32-2.52
	l1.32,2.52l2.94,0.4l-2.13,1.96l0.49,2.68l8.99-6.73c38.4,19.57,88.61,20,127.44,1.09l52.96,39.64H361.7l45.35-33.94l-2.54-1.27
	l-2.63,1.31l0.5-2.77l-2.13-1.96L403.19,652.31z M394.02,658.51l1.24-2.37l1.24,2.37l2.76,0.38l-2,1.84l0.47,2.6l-2.47-1.23
	l-2.47,1.23l0.47-2.6l-2-1.84L394.02,658.51z M385.6,665.67l1.23-2.35l1.23,2.35l2.74,0.38l-1.99,1.83l0.47,2.59l-2.45-1.22
	l-2.45,1.22l0.47-2.59l-1.99-1.83L385.6,665.67z M377.14,671.67l1.23-2.35l1.23,2.35l2.74,0.38l-1.99,1.83l0.47,2.59l-2.45-1.22
	l-2.45,1.22l0.47-2.59l-1.99-1.83L377.14,671.67z M368.43,678.62l1.04-1.99l1.04,1.99l2.32,0.32l-1.68,1.55l0.4,2.19l-2.08-1.03
	l-2.08,1.03l0.4-2.19l-1.68-1.55L368.43,678.62z M361.03,683.62l1.04-1.99l1.04,1.99l2.32,0.32l-1.68,1.55l0.4,2.19l-2.08-1.03
	l-2.08,1.03l0.4-2.19l-1.68-1.55L361.03,683.62z M357.43,696.09l-2.69-1.34l-2.69,1.34l0.51-2.83l-2.18-2.01l3.01-0.41l1.35-2.58
	l1.35,2.58l3.01,0.41l-2.18,2.01L357.43,696.09z M366.08,698.61l-2.36-1.18l-2.36,1.18l0.45-2.49l-1.91-1.76l2.64-0.36l1.18-2.27
	l1.18,2.27l2.64,0.36l-1.91,1.76L366.08,698.61z M375.7,698.36l-2.19-1.09l-2.19,1.09l0.42-2.31l-1.77-1.64l2.45-0.34l1.1-2.1
	l1.1,2.1l2.45,0.34l-1.77,1.64L375.7,698.36z M386.24,698.32l-2.25-1.12l-2.25,1.12l0.43-2.37l-1.82-1.68l2.51-0.35l1.12-2.15
	l1.12,2.15l2.51,0.35l-1.82,1.68L386.24,698.32z M396.81,698.32l-2.25-1.12l-2.25,1.12l0.43-2.37l-1.82-1.68l2.51-0.35l1.12-2.15
	l1.12,2.15l2.51,0.35l-1.82,1.68L396.81,698.32z M406.32,698.32l-2.25-1.12l-2.25,1.12l0.43-2.37l-1.82-1.68l2.51-0.35l1.12-2.15
	l1.12,2.15l2.51,0.35l-1.82,1.68L406.32,698.32z M416.86,698.4l-2.3-1.14l-2.3,1.14l0.44-2.42l-1.86-1.71l2.57-0.35l1.15-2.2
	l1.15,2.2l2.57,0.35l-1.86,1.71L416.86,698.4z M426.36,698.42l-2.31-1.15l-2.31,1.15l0.44-2.43l-1.87-1.72l2.58-0.36l1.16-2.22
	l1.16,2.22l2.58,0.36l-1.87,1.72L426.36,698.42z M435.98,698.17l-2.14-1.07l-2.14,1.07l0.41-2.26l-1.73-1.6l2.39-0.33l1.07-2.05
	l1.07,2.05l2.39,0.33l-1.73,1.6L435.98,698.17z M445.49,698.17l-2.14-1.07l-2.14,1.07l0.41-2.26l-1.73-1.6l2.39-0.33l1.07-2.05
	l1.07,2.05l2.39,0.33l-1.73,1.6L445.49,698.17z M455.09,697.98l-2.01-1l-2.01,1l0.38-2.12l-1.63-1.5l2.25-0.31l1.01-1.93l1.01,1.93
	l2.25,0.31l-1.63,1.5L455.09,697.98z M464.6,697.98l-2.01-1l-2.01,1l0.38-2.12l-1.63-1.5l2.25-0.31l1.01-1.93l1.01,1.93l2.25,0.31
	l-1.63,1.5L464.6,697.98z M474.08,698.05l-2.06-1.03l-2.06,1.03l0.39-2.17l-1.67-1.54l2.31-0.32l1.03-1.98l1.03,1.98l2.31,0.32
	l-1.67,1.54L474.08,698.05z M483.6,698.05l-2.06-1.03l-2.06,1.03l0.39-2.17l-1.67-1.54l2.31-0.32l1.03-1.98l1.03,1.98l2.31,0.32
	l-1.67,1.54L483.6,698.05z M494.04,698.34l-2.26-1.12l-2.26,1.12l0.43-2.38l-1.83-1.69l2.53-0.35l1.13-2.17l1.13,2.17l2.53,0.35
	l-1.83,1.69L494.04,698.34z M503.7,698l-2.02-1.01l-2.02,1.01l0.39-2.13l-1.64-1.51l2.26-0.31l1.01-1.94l1.01,1.94l2.26,0.31
	l-1.64,1.51L503.7,698z M513.22,698l-2.02-1.01l-2.02,1.01l0.39-2.13l-1.64-1.51l2.26-0.31l1.01-1.94l1.01,1.94l2.26,0.31
	l-1.64,1.51L513.22,698z M523.82,697.92l-1.97-0.98l-1.97,0.98l0.38-2.08l-1.59-1.47l2.2-0.3l0.99-1.89l0.99,1.89l2.2,0.3
	l-1.59,1.47L523.82,697.92z M533.33,697.92l-1.97-0.98l-1.97,0.98l0.38-2.08l-1.59-1.47l2.2-0.3l0.99-1.89l0.99,1.89l2.2,0.3
	l-1.59,1.47L533.33,697.92z M542.84,697.92l-1.97-0.98l-1.97,0.98l0.38-2.08l-1.59-1.47l2.2-0.3l0.99-1.89l0.99,1.89l2.2,0.3
	l-1.59,1.47L542.84,697.92z M552.41,697.79l-1.88-0.94l-1.88,0.94l0.36-1.98l-1.52-1.4l2.1-0.29l0.94-1.8l0.94,1.8l2.1,0.29
	l-1.52,1.4L552.41,697.79z M561.93,697.79l-1.88-0.94l-1.88,0.94l0.36-1.98l-1.52-1.4l2.1-0.29l0.94-1.8l0.94,1.8l2.1,0.29
	l-1.52,1.4L561.93,697.79z M570.45,697.62l-1.76-0.88l-1.76,0.88l0.34-1.86l-1.43-1.31l1.97-0.27l0.88-1.69l0.88,1.69l1.97,0.27
	l-1.43,1.31L570.45,697.62z M578.91,697.62l-1.76-0.88l-1.76,0.88l0.34-1.86l-1.43-1.31l1.97-0.27l0.88-1.69l0.88,1.69l1.97,0.27
	l-1.43,1.31L578.91,697.62z M587.37,697.62l-1.76-0.88l-1.76,0.88l0.34-1.86l-1.43-1.31l1.97-0.27l0.88-1.69l0.88,1.69l1.97,0.27
	l-1.43,1.31L587.37,697.62z M596.73,697.96l-2-0.99l-2,0.99l0.38-2.1l-1.62-1.49l2.23-0.31l1-1.91l1,1.91l2.23,0.31l-1.62,1.49
	L596.73,697.96z M604.78,689.72l1.49,2.85l3.33,0.46l-2.41,2.22l0.57,3.14l-2.98-1.48l-2.98,1.48l0.57-3.14l-2.41-2.22l3.33-0.46
	L604.78,689.72z M597.97,686.06l1-1.91l1,1.91l2.23,0.31l-1.62,1.49l0.38,2.1l-2-0.99l-2,0.99l0.38-2.1l-1.62-1.49L597.97,686.06z
	 M590.57,681.06l1-1.91l1,1.91l2.23,0.31l-1.62,1.49l0.38,2.1l-2-0.99l-2,0.99l0.38-2.1l-1.62-1.49L590.57,681.06z M583.2,675.78
	l0.99-1.9l0.99,1.9l2.22,0.3l-1.61,1.48l0.38,2.09l-1.98-0.99l-1.98,0.99l0.38-2.09l-1.61-1.48L583.2,675.78z M575.8,669.78
	l0.99-1.9l0.99,1.9l2.22,0.3l-1.61,1.48l0.38,2.09l-1.98-0.99l-1.98,0.99l0.38-2.09l-1.61-1.48L575.8,669.78z M567.82,663.69
	l1.13-2.17l1.13,2.17l2.53,0.35l-1.83,1.69l0.43,2.38l-2.26-1.12l-2.26,1.12l0.43-2.38l-1.83-1.69L567.82,663.69z M559.36,657.69
	l1.13-2.17l1.13,2.17l2.53,0.35l-1.83,1.69l0.43,2.38l-2.26-1.12l-2.26,1.12l0.43-2.38l-1.83-1.69L559.36,657.69z M551.96,651.69
	l1.13-2.17l1.13,2.17l2.53,0.35l-1.83,1.69l0.43,2.38l-2.26-1.12l-2.26,1.12l0.43-2.38l-1.83-1.69L551.96,651.69z M552.64,646.2
	l-3.22-1.6l-3.22,1.6l0.61-3.39l-2.6-2.4l3.6-0.49l1.61-3.09l1.61,3.09l3.6,0.49l-2.6,2.4L552.64,646.2z M563.38,638.8l-2.94-1.46
	l-2.94,1.46l0.56-3.1l-2.38-2.2l3.29-0.45l1.47-2.82l1.47,2.82l3.29,0.45l-2.38,2.2L563.38,638.8z M572.89,631.8l-2.94-1.46
	l-2.94,1.46l0.56-3.1l-2.38-2.2l3.29-0.45l1.47-2.82l1.47,2.82l3.29,0.45l-2.38,2.2L572.89,631.8z M584.23,618.39l-2.65,2.44
	l0.62,3.45l-3.27-1.63l-3.27,1.63l0.62-3.45l-2.65-2.44l3.66-0.5l1.64-3.14l1.64,3.14L584.23,618.39z M598.26,603.8l-2.94-1.46
	l-2.94,1.46l0.56-3.1l-2.38-2.2l3.29-0.45l1.47-2.82l1.47,2.82l3.29,0.45l-2.38,2.2L598.26,603.8z M603.59,594.46l-2.88-1.43
	l-2.88,1.43l0.55-3.03l-2.33-2.15l3.22-0.44l1.44-2.76l1.44,2.76l3.22,0.44l-2.33,2.15L603.59,594.46z M608.87,584.46l-2.88-1.43
	l-2.88,1.43l0.55-3.03l-2.33-2.15l3.22-0.44l1.44-2.76l1.44,2.76l3.22,0.44l-2.33,2.15L608.87,584.46z M612.9,573.94l-3.21-1.59
	l-3.21,1.59l0.61-3.38l-2.59-2.39l3.58-0.49l1.6-3.07l1.6,3.07l3.58,0.49l-2.59,2.39L612.9,573.94z M616.07,561.94l-3.21-1.59
	l-3.21,1.59l0.61-3.38l-2.59-2.39l3.58-0.49l1.6-3.07l1.6,3.07l3.58,0.49l-2.59,2.39L616.07,561.94z M618.18,548.94l-3.21-1.59
	l-3.21,1.59l0.61-3.38l-2.59-2.39l3.58-0.49l1.6-3.07l1.6,3.07l3.58,0.49l-2.59,2.39L618.18,548.94z M708.87,302.87l-3.6-1.8
	l-3.61,1.78l0.7-3.79l-2.91-2.7l4.03-0.54l1.81-3.45l1.79,3.46l4.03,0.57l-2.92,2.68L708.87,302.87z M708.81,289.45l-3.6-1.8
	l-3.61,1.78l0.7-3.79l-2.91-2.7l4.03-0.54l1.81-3.45l1.79,3.46l4.03,0.57l-2.92,2.68L708.81,289.45z M707.28,254.5l3.26,0.69
	l2.45-2.15l0.32,3.15l2.92,1.54l-3.07,1.26l-0.64,3.11l-2.21-2.37l-3.32,0.38l1.7-2.73L707.28,254.5z M702.96,266.9l1.81-3.45
	l1.79,3.46l4.03,0.57l-2.92,2.68l0.68,3.8l-3.6-1.8l-3.61,1.78l0.7-3.79l-2.91-2.7L702.96,266.9z M691.74,298.83l2.58-4.94
	l2.06,3.94l-0.54,4.12l3.81,0.45l-1.16,1.07l0.98,5.43l-5.15-2.56l-5.15,2.56l0.98-5.43l-4.17-3.84L691.74,298.83z M673.77,308.83
	l2.58-4.94l2.58,4.94l5.76,0.79l-4.17,3.84l0.98,5.43l-5.15-2.56l-5.15,2.56l0.98-5.43l-4.17-3.84L673.77,308.83z M658.97,323.39
	l2.58-4.94l2.58,4.94l5.76,0.79l-4.17,3.84l0.98,5.43l-5.15-2.56l-5.15,2.56l0.98-5.43l-4.17-3.84L658.97,323.39z M645.23,340.07
	l2.58-4.94l2.58,4.94l5.76,0.79l-4.17,3.84l0.98,5.43l-5.15-2.56l-5.15,2.56l0.98-5.43l-4.17-3.84L645.23,340.07z M636.77,359.07
	l2.58-4.94l2.58,4.94l5.76,0.79l-4.17,3.84l0.98,5.43l-5.15-2.56l-5.15,2.56l0.98-5.43l-4.17-3.84L636.77,359.07z M628.32,379.63
	l2.58-4.94l2.58,4.94l5.76,0.79l-4.17,3.84l0.98,5.43l-5.15-2.56l-5.15,2.56l0.98-5.43l-4.17-3.84L628.32,379.63z M627.26,399.83
	l2.58-4.94l2.58,4.94l5.76,0.79l-4.17,3.84l0.98,5.43l-5.15-2.56l-5.15,2.56l0.98-5.43l-4.17-3.84L627.26,399.83z M627.26,420.79
	l2.58-4.94l2.58,4.94l5.76,0.79l-4.17,3.84l0.98,5.43l-5.15-2.56l-5.15,2.56l0.98-5.43l-4.17-3.84L627.26,420.79z M623.62,441.58
	l5.76-0.79l2.58-4.94l2.58,4.94l5.76,0.79l-4.17,3.84l0.98,5.43l-5.15-2.56l-5.15,2.56l0.98-5.43L623.62,441.58z M633.14,470.85
	l0.98-5.43l-4.17-3.84l5.76-0.79l2.58-4.94l2.58,4.94l5.76,0.79l-4.17,3.84l0.98,5.43l-5.15-2.56L633.14,470.85z M648.44,486.77
	l-5.15,2.56l0.98-5.43l-4.17-3.84l5.76-0.79l2.58-4.94l2.58,4.94l5.76,0.79l-4.17,3.84l0.98,5.43L648.44,486.77z M660.79,500.32
	l-3.64,1.81l0.69-3.83l-2.94-2.71l4.07-0.56l1.82-3.49l1.82,3.49l4.07,0.56l-2.94,2.71l0.69,3.83L660.79,500.32z M675.88,513.54
	l-3.92-1.95l-3.92,1.95l0.75-4.13l-3.17-2.92l4.38-0.6l1.96-3.76l1.96,3.76l4.38,0.6l-3.17,2.92L675.88,513.54z M687.88,521.65
	l-3.31-1.65l-3.31,1.65l0.63-3.49l-2.68-2.47l3.7-0.51l1.66-3.17l1.66,3.17l3.7,0.51l-2.68,2.47L687.88,521.65z M697.25,527
	l-3.31,1.65l0.63-3.49l-2.68-2.47l3.7-0.51l1.66-3.17l1.66,3.17l3.7,0.51l-2.68,2.47l0.63,3.49L697.25,527z M629.81,543.7
	l-3.21-1.59l-3.21,1.59l0.61-3.38l-2.59-2.39l3.58-0.49l1.6-3.07l1.6,3.07l3.58,0.49l-2.59,2.39L629.81,543.7z M642.7,543.22
	l-2.88-1.43l-2.88,1.43l0.55-3.03l-2.33-2.15l3.22-0.44l1.44-2.76l1.44,2.76l3.22,0.44l-2.33,2.15L642.7,543.22z M655.49,542.98
	l-2.71-1.35l-2.71,1.35l0.52-2.85l-2.19-2.02l3.03-0.42l1.35-2.6l1.35,2.6l3.03,0.42l-2.19,2.02L655.49,542.98z M667.11,542.98
	l-2.71-1.35l-2.71,1.35l0.52-2.85l-2.19-2.02l3.03-0.42l1.35-2.6l1.35,2.6l3.03,0.42l-2.19,2.02L667.11,542.98z M678.74,542.98
	l-2.71-1.35l-2.71,1.35l0.52-2.85l-2.19-2.02l3.03-0.42l1.35-2.6l1.35,2.6l3.03,0.42l-2.19,2.02L678.74,542.98z M691.42,542.98
	l-2.71-1.35l-2.71,1.35l0.52-2.85l-2.19-2.02l3.03-0.42l1.35-2.6l1.35,2.6l3.03,0.42l-2.19,2.02L691.42,542.98z M706.67,544.4
	l-3.69-1.84l-3.69,1.84l0.7-3.89l-2.98-2.75l4.13-0.57l1.84-3.54l1.84,3.54l4.13,0.57l-2.98,2.75L706.67,544.4z"/>
<path class="st12" d="M407.82,287.21h-5.4l-0.43,2.35l3.6-1.79l3.6,1.79l-0.33-1.83c-0.19-0.09-0.38-0.18-0.57-0.27L407.82,287.21z"
	/>
<polygon class="st12" points="367.73,283.09 367.96,283.29 367.96,283.06 "/>
<polygon class="st12" points="386.66,289.56 390.25,287.77 393.85,289.56 393.43,287.21 387.08,287.21 "/>
<polygon class="st12" points="369.95,289.56 373.55,287.77 377.15,289.56 376.73,287.21 370.38,287.21 "/>
<polygon class="st12" points="469.17,288.43 469.16,288.35 467.12,288.35 466.9,289.56 "/>
<polygon class="st12" points="457.02,289.56 456.8,288.35 454.59,288.35 "/>
<polygon class="st12" points="452.25,288.35 450.04,288.35 449.82,289.56 "/>
<path class="st126" d="M548.2,283.09l-4.02-0.55l-1.8-3.45l-1.8,3.45l-1.5,0.21c1.45,0.86,2.94,1.78,4.51,2.81
	c0.64,0.42,1.27,0.86,1.9,1.3l-0.2-1.08L548.2,283.09z"/>
<path class="st12" d="M600.73,294.37c-2.79-7.57-18.83-5.68-27.89-7.57c-8.98-1.88-10.44-6.24-15.88-18.58
	c-15.53-3.36-31.5-7.33-44.67-15.88c-7.45-4.84-13.02-11.83-13.16-20.63c-0.09-5.62,2.21-11.4,5.4-16.02
	c0.36-0.53-12.73,2.37-22.87,3.99v0.11c5.52,1.35,9.62,6.09,9.62,11.72v4.96h0v34.67c3.6,0.41,7.31,0.42,10.87,0.57
	c7.42,0.32,14.8,0.88,22.04,2.57c7.52,1.76,14.31,5.48,20.61,9.63c12.02,7.93,21.46,18.42,30.43,29.22
	c3.55,4.28,7.03,8.82,10.25,13.55C596.4,314.75,603.3,301.34,600.73,294.37z"/>
<path class="st12" d="M485.12,227.31c0,0.01,0.01,0.01,0.01,0.02C485.13,227.32,485.12,227.31,485.12,227.31z"/>
<path class="st12" d="M449.22,235.89c-2.89-2.73-6.27-4.8-10.07-6.15c0,0-0.01,0-0.01,0c-3.19-1.13-6.55-1.71-9.98-1.71
	c-4.09,0-8.03,0.8-11.72,2.39c0,0,0,0,0,0c-3.1,1.33-5.91,3.17-8.34,5.47c-2.89,2.73-5.08,5.94-6.5,9.53c0,0,0,0,0,0
	c-1.2,3.02-1.81,6.19-1.81,9.45c0,3.87,0.85,7.6,2.53,11.09c0,0,0,0,0,0c1.41,2.94,3.35,5.59,5.78,7.89
	c2.89,2.73,6.28,4.8,10.07,6.15c0,0,0,0,0,0c3.19,1.13,6.55,1.71,9.98,1.71c4.09,0,8.03-0.8,11.72-2.39c0,0,0,0,0,0
	c3.1-1.33,5.91-3.17,8.34-5.47c2.89-2.73,5.07-5.93,6.5-9.52c0,0,0.01-0.01,0.01-0.01c1.2-3.02,1.81-6.2,1.81-9.45
	c0-3.86-0.85-7.59-2.52-11.08c0,0,0-0.01,0-0.01C453.6,240.85,451.65,238.19,449.22,235.89z M439.92,251.13
	C439.92,251.13,439.92,251.12,439.92,251.13l0-18.62c2.82,1.21,5.37,2.89,7.6,4.99c2.03,1.92,3.69,4.11,4.94,6.51l-12.53,11.86
	V251.13z M437.52,231.61v16.77l-3.55-3.35c0,0,0,0,0,0l-13.91-13.16C425.6,229.89,431.89,229.8,437.52,231.61z M437.52,251.59v6.55
	l-4.9,4.63h-6.92l-4.9-4.63v-6.55l4.9-4.63h6.93L437.52,251.59z M410.8,237.5c2.03-1.92,4.34-3.49,6.88-4.67l12.53,11.86l-5.01,0
	c0,0,0,0,0,0h-19.68C406.81,242.02,408.58,239.61,410.8,237.5z M418.4,258.61C418.4,258.61,418.4,258.61,418.4,258.61l0,18.62
	c-2.82-1.21-5.37-2.89-7.6-4.99c-2.03-1.92-3.69-4.11-4.94-6.51l12.53-11.86V258.61z M418.75,250.32
	C418.75,250.32,418.75,250.32,418.75,250.32l-13.92,13.16c-1.09-2.74-1.64-5.63-1.64-8.61c0-2.71,0.46-5.37,1.38-7.91h17.72
	L418.75,250.32z M420.8,278.13v-16.77l3.54,3.35c0,0,0,0,0,0l13.91,13.16C432.72,279.85,426.43,279.94,420.8,278.13z M447.52,272.24
	c-2.03,1.92-4.34,3.49-6.88,4.67l-12.53-11.86h5.01c0,0,0,0,0,0h19.68C451.51,267.72,449.74,270.13,447.52,272.24z M455.12,254.87
	c0,2.71-0.46,5.37-1.37,7.91h-17.72l3.55-3.35c0,0,0,0,0,0l13.91-13.16C454.57,249,455.12,251.89,455.12,254.87z"/>
<path class="st12" d="M471.08,226.44c-2.06,0-3.74,1.59-3.74,3.54c0,1.95,1.68,3.54,3.74,3.54c2.06,0,3.74-1.59,3.74-3.54
	C474.83,228.03,473.15,226.44,471.08,226.44z M471.08,231.25c-0.74,0-1.34-0.57-1.34-1.27c0-0.7,0.6-1.27,1.34-1.27
	c0.74,0,1.34,0.57,1.34,1.27C472.42,230.68,471.82,231.25,471.08,231.25z"/>
<path class="st12" d="M480.24,226.44c-2.06,0-3.74,1.59-3.74,3.54c0,1.95,1.68,3.54,3.74,3.54s3.74-1.59,3.74-3.54
	C483.99,228.03,482.31,226.44,480.24,226.44z M480.24,231.25c-0.74,0-1.34-0.57-1.34-1.27c0-0.7,0.6-1.27,1.34-1.27
	s1.34,0.57,1.34,1.27C481.58,230.68,480.98,231.25,480.24,231.25z"/>
<path class="st12" d="M477.61,285.3h7.12c0.66,0,1.2-0.51,1.2-1.14c0-0.63-0.54-1.14-1.2-1.14h-7.12c-0.66,0-1.2,0.51-1.2,1.14
	C476.41,284.8,476.95,285.3,477.61,285.3z"/>
<path class="st12" d="M478.52,220.53v-3.47c0-0.63-0.54-1.14-1.2-1.14h-11.89c-0.66,0-1.2,0.51-1.2,1.14v3.47h-3.4l-8.89-10.78
	c-0.23-0.28-0.58-0.44-0.95-0.44h-44.31c-0.39,0-0.75,0.18-0.98,0.48l-8.11,10.74h-3.5v-3.47c0-0.63-0.54-1.14-1.2-1.14h-11.89
	c-0.66,0-1.2,0.51-1.2,1.14v3.47c-6.38,0.02-11.56,4.94-11.56,10.98v7.23V271v17.07c0,0.63,0.54,1.14,1.2,1.14h40.25
	c5.91,3.01,12.55,4.6,19.45,4.6c7.01,0,13.61-1.67,19.39-4.6h40.33c0.66,0,1.2-0.51,1.2-1.14V271v-32.27v-7.23
	C490.07,225.46,484.89,220.55,478.52,220.53z M466.63,218.2h9.48v2.33h-9.48V218.2z M382.21,218.2h9.48v2.33h-9.48V218.2z
	 M370.65,263.02h6.75c0.66,0,1.2-0.51,1.2-1.14c0-0.63-0.54-1.14-1.2-1.14h-6.75v-4.74h6.75c0.66,0,1.2-0.51,1.2-1.14
	c0-0.63-0.54-1.14-1.2-1.14h-6.75v-4.74h6.75c0.66,0,1.2-0.51,1.2-1.14c0-0.63-0.54-1.14-1.2-1.14h-6.75v-6.84h20.51
	c-0.01,0.02-0.02,0.04-0.03,0.07c-0.19,0.44-0.37,0.88-0.54,1.33c-0.07,0.18-0.15,0.36-0.21,0.53c-0.12,0.32-0.23,0.64-0.34,0.96
	c-0.11,0.32-0.22,0.63-0.32,0.95c-0.04,0.13-0.08,0.27-0.12,0.4c-2.15,7.05-2.15,14.51,0.01,21.56c0.04,0.12,0.07,0.24,0.11,0.36
	c0.1,0.33,0.22,0.66,0.34,0.99c0.11,0.31,0.21,0.61,0.32,0.92c0.07,0.19,0.15,0.38,0.23,0.58c0.17,0.43,0.34,0.86,0.53,1.28
	c0.01,0.02,0.02,0.05,0.03,0.08h-20.51V263.02z M370.65,286.94v-14.8h21.61c1.94,3.71,4.52,7.19,7.78,10.27
	c0.46,0.44,0.93,0.86,1.42,1.28c0.22,0.19,0.44,0.36,0.66,0.55c0.26,0.22,0.52,0.44,0.79,0.65c0.29,0.23,0.6,0.45,0.9,0.68
	c0.2,0.15,0.39,0.29,0.59,0.44c0.35,0.25,0.7,0.49,1.06,0.73c0.11,0.07,0.21,0.15,0.32,0.22H370.65z M451.84,284.58
	c-0.53,0.36-1.07,0.72-1.63,1.06c-0.16,0.1-0.33,0.2-0.49,0.3c-0.67,0.4-1.35,0.79-2.06,1.15c0,0,0,0,0,0
	c-5.51,2.84-11.81,4.46-18.52,4.46c-6.59,0-12.93-1.55-18.56-4.47c-0.77-0.4-1.51-0.82-2.25-1.26c-0.07-0.04-0.15-0.09-0.22-0.13
	c-0.74-0.45-1.47-0.93-2.17-1.43c-0.02-0.01-0.04-0.03-0.06-0.04c-0.64-0.46-1.26-0.93-1.87-1.43c-0.15-0.12-0.3-0.24-0.45-0.36
	c-0.63-0.52-1.24-1.06-1.83-1.61c-3.25-3.07-5.79-6.56-7.64-10.28c0,0,0,0,0,0c-0.6-1.21-1.13-2.44-1.58-3.68
	c-0.08-0.22-0.15-0.44-0.22-0.65c-0.12-0.36-0.24-0.72-0.36-1.08c-0.11-0.36-0.21-0.72-0.31-1.08c-0.06-0.21-0.11-0.42-0.17-0.63
	c-0.11-0.45-0.22-0.9-0.31-1.36c-0.02-0.1-0.04-0.2-0.06-0.3c-0.9-4.53-0.91-9.19,0-13.72c0.02-0.11,0.04-0.21,0.07-0.32
	c0.09-0.45,0.2-0.89,0.31-1.34c0.06-0.22,0.11-0.44,0.17-0.65c0.1-0.35,0.19-0.71,0.3-1.06c0.11-0.37,0.24-0.74,0.37-1.11
	c0.07-0.21,0.14-0.42,0.21-0.62c0.46-1.25,0.98-2.48,1.58-3.69c0,0,0,0,0,0c1.85-3.72,4.4-7.21,7.64-10.28
	c0.57-0.54,1.18-1.08,1.81-1.6c0.05-0.05,0.11-0.09,0.17-0.13c0.63-0.52,1.28-1.02,1.96-1.51c0.01-0.01,0.01-0.01,0.02-0.02
	c6.71-4.85,14.87-7.48,23.46-7.48c8.81,0,16.93,2.8,23.45,7.5c0,0,0,0,0,0c0.57,0.41,1.12,0.84,1.66,1.27
	c0.09,0.08,0.19,0.15,0.28,0.23c0.42,0.34,0.83,0.7,1.23,1.05c0.16,0.15,0.33,0.29,0.49,0.44c0.29,0.27,0.58,0.55,0.86,0.83
	c0.23,0.23,0.46,0.45,0.68,0.68c0.08,0.08,0.15,0.16,0.22,0.24c2.48,2.62,4.56,5.57,6.17,8.78c0,0,0,0,0,0
	c0.29,0.58,0.56,1.17,0.82,1.76c0.05,0.12,0.1,0.23,0.15,0.35c0.2,0.47,0.38,0.93,0.56,1.4c0.07,0.2,0.14,0.4,0.22,0.6
	c0.14,0.39,0.27,0.78,0.39,1.17c0.08,0.26,0.16,0.52,0.23,0.78c0.1,0.34,0.19,0.67,0.27,1.01c0.08,0.3,0.15,0.6,0.22,0.9
	c0.07,0.31,0.13,0.63,0.19,0.94c0.06,0.29,0.11,0.57,0.16,0.86c0.03,0.2,0.06,0.39,0.09,0.59c0.02,0.15,0.05,0.31,0.07,0.46
	c0.04,0.28,0.08,0.56,0.11,0.84c0.04,0.37,0.07,0.73,0.1,1.1c0,0.04,0.01,0.09,0.01,0.13c0.02,0.24,0.04,0.49,0.06,0.73
	c0.04,0.67,0.06,1.34,0.06,2.01c0,0.76-0.03,1.52-0.08,2.27c-0.01,0.16-0.03,0.32-0.04,0.48c0,0.05-0.01,0.09-0.01,0.14
	c-0.05,0.59-0.11,1.18-0.19,1.77c-0.01,0.05-0.01,0.11-0.02,0.16c-0.02,0.14-0.04,0.28-0.06,0.41c-0.1,0.65-0.22,1.3-0.35,1.94
	c-0.02,0.11-0.04,0.22-0.07,0.34c-0.16,0.73-0.35,1.45-0.55,2.16c-0.03,0.09-0.05,0.18-0.08,0.26c-0.21,0.69-0.43,1.38-0.68,2.06
	c-0.02,0.05-0.04,0.1-0.05,0.15c-0.01,0.03-0.03,0.07-0.04,0.1c-0.24,0.64-0.5,1.27-0.78,1.9c-0.1,0.23-0.22,0.47-0.33,0.7
	c-0.25,0.53-0.5,1.06-0.78,1.58c-0.06,0.12-0.13,0.24-0.2,0.36c-0.32,0.58-0.65,1.15-1,1.71c-0.06,0.1-0.12,0.2-0.18,0.3
	c-0.4,0.63-0.81,1.24-1.25,1.85c-0.1,0.14-0.21,0.28-0.32,0.43c-0.33,0.45-0.68,0.89-1.03,1.32c-0.16,0.2-0.32,0.4-0.49,0.59
	c-0.37,0.43-0.75,0.85-1.14,1.27c-0.13,0.14-0.25,0.28-0.38,0.42c-0.48,0.5-0.97,0.98-1.48,1.45c-0.2,0.18-0.4,0.36-0.6,0.55
	c-0.38,0.34-0.77,0.68-1.17,1c-0.19,0.15-0.37,0.31-0.57,0.46c-0.58,0.45-1.16,0.9-1.77,1.32
	C452.09,284.41,451.97,284.49,451.84,284.58z M487.67,286.94h-35.18c0.15-0.1,0.28-0.2,0.43-0.3c0.42-0.28,0.84-0.57,1.25-0.87
	c0.25-0.18,0.49-0.36,0.74-0.55c0.35-0.26,0.69-0.53,1.03-0.81c0.25-0.2,0.5-0.4,0.74-0.61c0.37-0.32,0.73-0.64,1.09-0.97
	c0.34-0.31,0.68-0.63,1-0.95c0.33-0.32,0.66-0.65,0.98-0.98c0.23-0.24,0.45-0.49,0.67-0.73c0.27-0.3,0.54-0.61,0.81-0.91
	c0.21-0.24,0.41-0.49,0.61-0.74c0.29-0.35,0.56-0.71,0.83-1.07c0.16-0.21,0.32-0.42,0.47-0.63c0.86-1.19,1.65-2.42,2.37-3.7
	c0.07-0.12,0.13-0.24,0.19-0.36c0.11-0.21,0.23-0.42,0.34-0.63h21.63V286.94z M487.67,246.71h-6.75c-0.66,0-1.2,0.51-1.2,1.14
	c0,0.63,0.54,1.14,1.2,1.14h6.75v4.74h-6.75c-0.66,0-1.2,0.51-1.2,1.14c0,0.63,0.54,1.14,1.2,1.14h6.75v4.74h-6.75
	c-0.66,0-1.2,0.51-1.2,1.14c0,0.63,0.54,1.14,1.2,1.14h6.75v6.84h-20.53c0.14-0.31,0.26-0.62,0.39-0.93
	c0.03-0.09,0.07-0.17,0.11-0.25c0.08-0.2,0.16-0.39,0.24-0.59c0.04-0.11,0.08-0.22,0.12-0.33c0.18-0.48,0.35-0.95,0.51-1.44
	c0.11-0.32,0.2-0.65,0.29-0.97c0.08-0.28,0.17-0.55,0.25-0.83c0.13-0.46,0.23-0.93,0.34-1.39c0.04-0.15,0.08-0.31,0.11-0.46
	c0.04-0.2,0.08-0.4,0.12-0.6c0.02-0.08,0.03-0.15,0.04-0.23c0.05-0.26,0.1-0.51,0.14-0.77c0.02-0.1,0.04-0.2,0.05-0.3
	c0.05-0.29,0.08-0.59,0.12-0.88c0.02-0.16,0.04-0.32,0.06-0.48c0.01-0.11,0.03-0.21,0.04-0.32c0.01-0.09,0.03-0.18,0.03-0.26
	c0.04-0.39,0.07-0.79,0.1-1.18c0.01-0.18,0.03-0.35,0.04-0.53c0.01-0.09,0.02-0.17,0.02-0.26c0.03-0.66,0.05-1.32,0.05-1.98
	c0-0.66-0.02-1.33-0.05-1.98c0-0.05-0.01-0.1-0.01-0.15c-0.01-0.23-0.04-0.46-0.05-0.7c-0.03-0.38-0.05-0.75-0.09-1.12
	c-0.01-0.08-0.02-0.16-0.03-0.25c0-0.01,0-0.01,0-0.02c-0.03-0.3-0.08-0.59-0.12-0.89c-0.04-0.26-0.07-0.53-0.11-0.79
	c-0.01-0.09-0.03-0.18-0.05-0.27c0-0.02-0.01-0.05-0.01-0.07c-0.06-0.36-0.13-0.71-0.2-1.07c-0.03-0.17-0.06-0.33-0.1-0.5
	c-0.02-0.11-0.06-0.23-0.08-0.34c-0.1-0.44-0.2-0.88-0.31-1.31c-0.02-0.07-0.04-0.14-0.06-0.2c-0.02-0.08-0.05-0.16-0.07-0.24
	c-0.48-1.74-1.08-3.45-1.81-5.1h20.51V246.71z M487.67,237.6h-21.6c-1.86-3.56-4.32-6.83-7.3-9.73c-0.26-0.25-0.52-0.51-0.79-0.76
	c-0.2-0.19-0.41-0.37-0.62-0.56c-0.39-0.35-0.78-0.68-1.18-1.01c-0.14-0.11-0.27-0.23-0.41-0.34c-0.54-0.43-1.09-0.86-1.66-1.27
	c-0.02-0.02-0.04-0.03-0.06-0.05c0,0,0,0,0,0c-6.92-4.99-15.55-7.96-24.91-7.96c-10.03,0-19.51,3.38-27,9.56
	c-0.06,0.05-0.13,0.1-0.19,0.16c-0.65,0.55-1.3,1.11-1.92,1.69c-3.26,3.08-5.84,6.56-7.78,10.27h-21.61v-6.09
	c0-4.8,4.13-8.7,9.2-8.7h1.15h11.89h5.32c0.39,0,0.75-0.18,0.98-0.48l8.11-10.74h43.11l8.89,10.78c0.23,0.28,0.58,0.44,0.95,0.44
	h5.19h11.89h1.15c5.07,0,9.2,3.91,9.2,8.7V237.6z"/>
<path class="st12" d="M466.5,257.69c0.05-0.63-0.44-1.17-1.11-1.22c-0.65-0.04-1.24,0.42-1.29,1.05
	c-1.42,17.12-16.77,30.53-34.94,30.53c-9.37,0-18.17-3.45-24.79-9.72c-5.89-5.57-9.5-12.97-10.16-20.82
	c-0.05-0.63-0.63-1.09-1.29-1.04c-0.66,0.05-1.16,0.6-1.1,1.22c0.7,8.39,4.56,16.29,10.85,22.24c7.08,6.69,16.48,10.38,26.49,10.38
	C448.58,290.31,464.98,275.98,466.5,257.69z"/>
<path class="st12" d="M381.08,283.03h-7.12c-0.66,0-1.2,0.51-1.2,1.14c0,0.63,0.54,1.14,1.2,1.14h7.12c0.66,0,1.2-0.51,1.2-1.14
	C382.29,283.54,381.75,283.03,381.08,283.03z"/>
<path class="st12" d="M341.42,370.77v-30.58h31.6v-2.18c0-0.59-0.26-1.09-0.79-1.5c-0.53-0.41-1.23-0.66-2.09-0.75h-28.64
	c0.24-1.55,0.72-3.02,1.44-4.4c0.72-1.39,1.73-2.59,3.03-3.62c1.3-1.02,2.9-1.83,4.8-2.42c1.9-0.59,4.15-0.89,6.75-0.89h15.08
	c2.84,0,5.28,0.36,7.32,1.09c2.04,0.73,3.72,1.71,5.01,2.94c1.3,1.23,2.25,2.67,2.85,4.33c0.6,1.66,0.9,3.4,0.9,5.22v32.76h-15.66
	v-19.25h-15.87v19.25H341.42z"/>
<path class="st12" d="M394.02,335.76v-11.33h41.27v11.33H394.02z M394.02,370.77v-30.58h41.27v11.33h-25.61v19.25H394.02z"/>
<path class="st126" d="M577.41,323.29h5.68c-2.53-3.51-5.17-6.91-7.87-10.15c-8.97-10.81-18.41-21.29-30.43-29.22
	c-6.3-4.16-13.09-7.88-20.61-9.63c-7.23-1.69-14.61-2.25-22.04-2.57c-3.55-0.15-7.27-0.15-10.87-0.56v2.14h0v6.69v3.17
	c4.15-0.84,8.35-1.47,12.61-1.81c10.85-0.86,21.42-0.02,31.36,4.49c9.09,4.12,17.06,10.05,23.9,17.03
	c6.17,6.3,11.6,13.21,16.44,20.49l0,0C576.18,323.31,576.79,323.29,577.41,323.29z"/>
<path class="st126" d="M578.2,327.4c0,0,0-0.01-0.01-0.01C578.2,327.39,578.2,327.39,578.2,327.4z"/>
<path class="st126" d="M578.2,327.39c-0.85-1.36-1.72-2.71-2.61-4.05C576.48,324.68,577.35,326.03,578.2,327.39z"/>
<path class="st126" d="M580.7,331.52c-0.81-1.38-1.65-2.76-2.5-4.12C579.06,328.76,579.89,330.13,580.7,331.52z"/>
<path class="st12" d="M561.32,370.77v-30.58h31.6v-2.18c0-0.59-0.26-1.09-0.79-1.5c-0.53-0.41-1.23-0.66-2.09-0.75H561.4
	c0.24-1.55,0.72-3.02,1.44-4.4c0.72-1.39,1.73-2.59,3.03-3.62c1.3-1.02,2.9-1.83,4.8-2.42c1.9-0.59,4.15-0.89,6.75-0.89h15.08
	c2.84,0,5.28,0.36,7.32,1.09c2.04,0.73,3.72,1.71,5.01,2.94c1.3,1.23,2.25,2.67,2.85,4.33c0.6,1.66,0.9,3.4,0.9,5.22v32.76h-15.66
	v-19.25h-15.87v19.25H561.32z"/>
<path class="st126" d="M549.23,328.25c0.34,0.49,0.68,0.99,1,1.5C549.91,329.24,549.57,328.74,549.23,328.25z"/>
<path class="st126" d="M548.02,326.56c0.35,0.47,0.7,0.95,1.04,1.43C548.72,327.51,548.37,327.04,548.02,326.56z"/>
<path class="st126" d="M546.73,324.9c0.38,0.46,0.74,0.93,1.1,1.41C547.47,325.83,547.1,325.36,546.73,324.9z"/>
<path class="st126" d="M558.42,357.22c-0.14-1.86-0.21-3.76-0.21-5.76c0-1.38,0.31-2.55,0.89-3.6c-1.44-3.64-3.01-7.35-4.81-10.96
	h-4.48C553.73,343.15,556.56,350.07,558.42,357.22z"/>
<path class="st126" d="M543.06,328.12c0.4,0.43,0.79,0.87,1.18,1.31C543.86,328.99,543.47,328.55,543.06,328.12z"/>
<path class="st126" d="M544.67,329.93c0.38,0.45,0.76,0.9,1.13,1.36C545.44,330.83,545.06,330.38,544.67,329.93z"/>
<polygon class="st126" points="537.95,323.29 537.95,323.29 537.96,323.29 "/>
<path class="st126" d="M542.66,327.7c0.13,0.14,0.27,0.28,0.4,0.42C542.93,327.98,542.8,327.84,542.66,327.7z"/>
<polygon class="st126" points="513.44,340.71 513.44,340.71 513.44,340.71 "/>
<path class="st126" d="M535.8,369.46c0.01,0.03,0.02,0.06,0.03,0.09C535.82,369.52,535.81,369.49,535.8,369.46z"/>
<path class="st126" d="M545.8,331.29c0.11,0.14,0.22,0.28,0.33,0.43C546.03,331.57,545.92,331.43,545.8,331.29z"/>
<path class="st126" d="M544.25,329.43c0.14,0.16,0.29,0.33,0.43,0.5C544.53,329.76,544.39,329.6,544.25,329.43z"/>
<path class="st126" d="M546.57,324.71c0.05,0.06,0.11,0.13,0.16,0.19C546.67,324.84,546.62,324.78,546.57,324.71z"/>
<polygon class="st126" points="554.28,336.89 554.28,336.89 554.28,336.89 "/>
<path class="st126" d="M547.83,326.31c0.06,0.08,0.13,0.17,0.19,0.25C547.96,326.48,547.89,326.39,547.83,326.31z"/>
<path class="st126" d="M550.24,329.75c0.03,0.05,0.06,0.1,0.09,0.15C550.3,329.85,550.27,329.8,550.24,329.75z"/>
<path class="st126" d="M549.06,328c0.06,0.08,0.12,0.17,0.18,0.25C549.17,328.17,549.11,328.08,549.06,328z"/>
<path class="st126" d="M503.29,337.3c0.22,0.04,0.44,0.08,0.66,0.12C503.73,337.38,503.51,337.34,503.29,337.3z"/>
<path class="st126" d="M498.13,336.78c0.36,0.01,0.71,0.02,1.07,0.04C498.84,336.8,498.49,336.79,498.13,336.78z"/>
<path class="st126" d="M506.04,337.89c0.76,0.2,1.5,0.42,2.24,0.67C507.54,338.31,506.8,338.09,506.04,337.89z"/>
<path class="st126" d="M513.44,340.71c-0.95-0.48-1.93-0.92-2.93-1.33v7.01c1.01,0.52,1.99,1.07,2.93,1.66V340.71z"/>
<path class="st126" d="M501.09,336.98c0.23,0.03,0.47,0.06,0.7,0.09C501.56,337.04,501.32,337.01,501.09,336.98z"/>
<path class="st126" d="M495.96,336.76c0.42-0.01,0.84-0.01,1.26,0C496.81,336.75,496.39,336.75,495.96,336.76z"/>
<path class="st126" d="M495.49,336.78c0.16-0.01,0.32-0.01,0.48-0.02C495.81,336.76,495.65,336.77,495.49,336.78z"/>
<path class="st126" d="M499.2,336.82c0.63,0.04,1.26,0.09,1.89,0.16C500.46,336.91,499.83,336.86,499.2,336.82z"/>
<path class="st126" d="M497.23,336.76c0.3,0,0.6,0.01,0.91,0.02C497.83,336.77,497.53,336.76,497.23,336.76z"/>
<path class="st126" d="M494.87,341.88c0.66,0.04,1.32,0.1,1.97,0.17C496.19,341.98,495.53,341.92,494.87,341.88z"/>
<path class="st126" d="M497.23,342.1c0.59,0.07,1.18,0.17,1.77,0.27C498.41,342.26,497.82,342.17,497.23,342.1z"/>
<path class="st126" d="M499.47,342.45c0.72,0.14,1.43,0.3,2.13,0.49C500.9,342.75,500.18,342.59,499.47,342.45z"/>
<path class="st126" d="M494.68,341.87c0.06,0,0.13,0.01,0.19,0.01C494.81,341.88,494.75,341.88,494.68,341.87z"/>
<path class="st126" d="M496.84,342.05c0.13,0.01,0.26,0.03,0.38,0.04C497.1,342.08,496.97,342.07,496.84,342.05z"/>
<path class="st126" d="M498.99,342.37c0.16,0.03,0.32,0.05,0.47,0.08C499.31,342.42,499.15,342.4,498.99,342.37z"/>
<polygon class="st126" points="510.51,339.39 510.51,339.39 510.51,339.39 "/>
<path class="st126" d="M501.79,337.07c0.5,0.07,1,0.14,1.49,0.23C502.79,337.21,502.29,337.14,501.79,337.07z"/>
<path class="st126" d="M508.27,338.56c0.05,0.02,0.1,0.04,0.16,0.06C508.38,338.59,508.32,338.57,508.27,338.56z"/>
<path class="st126" d="M503.95,337.42c0.7,0.14,1.39,0.29,2.09,0.47C505.34,337.71,504.64,337.56,503.95,337.42z"/>
<path class="st12" d="M493.65,370.77v-46.35h15.66v46.35H493.65z"/>
<path class="st12" d="M560.21,335.59c0.26-1.66,0.78-3.25,1.55-4.74c0.79-1.53,1.92-2.87,3.34-3.99c1.41-1.11,3.16-2,5.19-2.63
	c1.55-0.48,3.32-0.78,5.29-0.89c-4.84-7.28-10.27-14.19-16.44-20.49c-6.84-6.98-14.81-12.92-23.9-17.03
	c-9.94-4.5-20.51-5.35-31.36-4.49c-4.26,0.34-8.46,0.96-12.61,1.81v2.52v4.7h-23.28c-11.46,4.73-22.34,10.86-32.5,17.52
	c-3.97,2.6-7.77,5.4-11.44,8.33c7.58,1.69,10.37,2.63,12.14,8.48c0.62,2.05,1.24,4.19,1.99,6.39c0.41-0.28,0.83-0.55,1.24-0.83
	v-6.96h11.1c6.06-3.52,12.32-6.7,18.7-9.3c21.27-8.69,50.41-10.53,69.65,3.39c2.41,1.74,4.55,3.74,6.49,5.92h11.83v13.61h-2.91
	c1.8,3.61,3.37,7.33,4.81,10.96c0.28-0.51,0.63-0.98,1.03-1.44v-7.36h10.57c1.05-0.66,2.14-1.38,3.27-2.16H560L560.21,335.59z"/>
<path class="st126" d="M538.86,317.37c-19.24-13.92-48.38-12.08-69.65-3.39c-6.38,2.6-12.64,5.78-18.7,9.3h13.45
	c22.53-11.69,49.46-18.08,71.4-2.03c0.89,0.65,1.75,1.33,2.59,2.03h7.38C543.4,321.11,541.27,319.11,538.86,317.37z"/>
<path class="st126" d="M451.09,330.77c1.25-0.8,2.52-1.6,3.82-2.38C453.62,329.17,452.34,329.97,451.09,330.77z"/>
<path class="st126" d="M470.6,337.39c-0.33-0.26-0.8-0.42-1.4-0.49h-27.29c0.02-0.01-0.71,0.47-1.1,0.73
	c0.23,0.47,0.47,0.95,0.72,1.43h27.74c0.61,0,1.07-0.11,1.34-0.34c0.24-0.19,0.34-0.4,0.34-0.71
	C470.95,337.83,470.91,337.63,470.6,337.39z"/>
<path class="st126" d="M446.87,333.57c1.2-0.82,2.44-1.64,3.7-2.45C449.31,331.92,448.07,332.74,446.87,333.57z"/>
<path class="st126" d="M450.57,331.11c0.18-0.11,0.35-0.23,0.53-0.34C450.92,330.88,450.74,331,450.57,331.11z"/>
<path class="st126" d="M454.91,328.38c0.14-0.08,0.28-0.17,0.42-0.25C455.19,328.22,455.05,328.3,454.91,328.38z"/>
<path class="st126" d="M457.48,371.91h-1.34c-0.27,4.67-0.57,8.74-0.09,14.32c3.11-3.54,6.24-7.08,9.52-10.5
	c1.36-1.41,2.77-2.75,4.24-3.98l-12.33-16.79V371.91z"/>
<path class="st126" d="M473.27,369.14c0.58-0.38,1.16-0.75,1.76-1.1C474.43,368.39,473.84,368.76,473.27,369.14z"/>
<path class="st126" d="M471.64,370.3c0.52-0.39,1.04-0.76,1.58-1.12C472.68,369.54,472.16,369.91,471.64,370.3z"/>
<polygon class="st126" points="469.81,371.74 469.81,371.74 469.81,371.74 "/>
<path class="st126" d="M471.4,370.48c0.08-0.06,0.16-0.12,0.24-0.18C471.56,370.36,471.48,370.42,471.4,370.48z"/>
<path class="st126" d="M473.22,369.18c0.02-0.01,0.03-0.02,0.05-0.03C473.25,369.16,473.23,369.17,473.22,369.18z"/>
<polygon class="st126" points="485.32,364.39 485.32,364.39 485.32,364.39 "/>
<path class="st126" d="M475.03,368.04c0.04-0.02,0.08-0.04,0.11-0.06C475.11,368,475.07,368.02,475.03,368.04z"/>
<path class="st126" d="M484.22,342.6c0.67-0.12,1.34-0.23,2.02-0.32C485.57,342.37,484.89,342.48,484.22,342.6z"/>
<path class="st126" d="M472.17,346c-0.81,0.31-1.61,0.64-2.38,0.97C470.57,346.64,471.36,346.32,472.17,346z"/>
<path class="st126" d="M475.63,344.77c0.53-0.17,1.07-0.34,1.61-0.5C476.69,344.43,476.16,344.59,475.63,344.77z"/>
<path class="st126" d="M472.97,345.7c0.56-0.21,1.12-0.41,1.69-0.61C474.09,345.29,473.53,345.5,472.97,345.7z"/>
<path class="st126" d="M480.94,343.26c0.78-0.18,1.57-0.35,2.36-0.51C482.51,342.91,481.72,343.08,480.94,343.26z"/>
<path class="st126" d="M478.27,343.96c0.55-0.16,1.11-0.3,1.68-0.44C479.39,343.66,478.83,343.8,478.27,343.96z"/>
<path class="st126" d="M492.45,336.98L492.45,336.98c0.12,0,0.25-0.01,0.37-0.02C492.7,336.96,492.57,336.97,492.45,336.98z"/>
<path class="st126" d="M476.15,341.13c-1.55,0.6-3.07,1.23-4.56,1.9C473.08,342.36,474.61,341.72,476.15,341.13z"/>
<path class="st126" d="M471.15,343.22c-0.71,0.32-1.41,0.64-2.11,0.97C469.73,343.87,470.44,343.54,471.15,343.22z"/>
<path class="st126" d="M474.66,345.09c0.32-0.11,0.65-0.22,0.97-0.33C475.3,344.88,474.98,344.98,474.66,345.09z"/>
<path class="st126" d="M472.17,346c0.26-0.1,0.53-0.2,0.8-0.3C472.7,345.8,472.44,345.9,472.17,346z"/>
<path class="st126" d="M471.59,343.03c-0.15,0.07-0.3,0.13-0.44,0.2C471.3,343.16,471.44,343.09,471.59,343.03z"/>
<path class="st126" d="M476.3,341.07c-0.05,0.02-0.1,0.04-0.15,0.06C476.2,341.11,476.25,341.09,476.3,341.07z"/>
<path class="st126" d="M477.23,344.26c0.35-0.1,0.69-0.21,1.04-0.31C477.92,344.06,477.58,344.16,477.23,344.26z"/>
<path class="st126" d="M483.31,342.76c0.31-0.06,0.61-0.11,0.92-0.16C483.92,342.65,483.61,342.7,483.31,342.76z"/>
<path class="st126" d="M479.95,343.51c0.33-0.08,0.66-0.17,0.99-0.25C480.61,343.34,480.28,343.43,479.95,343.51z"/>
<polygon class="st126" points="439.42,330.24 439.42,330.24 439.42,330.24 "/>
<polygon class="st126" points="450.52,323.29 450.52,323.29 450.52,323.29 "/>
<line class="st126" x1="492.3" y1="335.71" x2="492.3" y2="337.99"/>
<path class="st126" d="M488.45,342.01c0.36-1.31,0.55-2.65,0.55-4.01c0-0.18-0.02-0.36-0.02-0.54c0.91-0.61-2.04,0.08,3.46-0.48
	v4.83c-1.68,0-2.06,0.53-3.76,0.72"/>
<path class="st126" d="M535.36,321.26c-24.82-18.15-56.02-7.59-80.03,6.87c2.79-1.68,5.67-3.31,8.63-4.84h7.75
	c2.97,0,5.57,0.39,7.75,1.16c2.19,0.78,4.03,1.86,5.44,3.2c1.42,1.35,2.48,2.95,3.14,4.77c0.58,1.61,0.89,3.3,0.94,5.05
	c1.15-0.2,2.3-0.37,3.46-0.49v-13.69h18.06v16.1c1,0.41,1.98,0.84,2.93,1.33v-2.71c0-1.94,0.33-3.82,0.97-5.59
	c0.66-1.82,1.71-3.42,3.14-4.77c1.42-1.34,3.25-2.41,5.44-3.2c2.17-0.77,4.78-1.16,7.75-1.16h7.22
	C537.11,322.59,536.26,321.91,535.36,321.26z"/>
<path class="st12" d="M492.45,364.65v-22.82c-1.33,0-2.66,0.07-3.99,0.19c-0.08,0.3-0.16,0.59-0.26,0.88
	c-0.55,1.61-1.41,3.09-2.56,4.4c-1.15,1.31-2.63,2.44-4.39,3.34c-1.29,0.66-2.77,1.17-4.41,1.5l8.49,12.24
	c0.2-0.03,0.4-0.07,0.61-0.09C488.28,364.01,490.46,364.15,492.45,364.65z"/>
<path class="st12" d="M474.82,351.32c2.26-0.27,4.21-0.83,5.84-1.67c1.63-0.84,2.98-1.87,4.04-3.07c1.06-1.21,1.84-2.55,2.35-4.03
	c0.5-1.48,0.76-2.99,0.76-4.54c0-1.82-0.3-3.56-0.9-5.22c-0.6-1.66-1.55-3.11-2.85-4.33c-1.3-1.23-2.97-2.21-5.01-2.94
	c-2.04-0.73-4.48-1.09-7.32-1.09h-31.1v11.33h28.64c0.87,0.09,1.56,0.34,2.09,0.75c0.53,0.41,0.79,0.91,0.79,1.5
	c0,0.64-0.25,1.16-0.76,1.57c-0.5,0.41-1.21,0.61-2.13,0.61h-28.64v30.58h15.66v-19.45l14.29,19.45h17.75L474.82,351.32z"/>
<path class="st126" d="M531.01,426.22c1.65-0.83,3.01-1.57,4.13-2.33c-0.47-0.68-0.56-1.41-0.56-1.84v-15.79h-0.73
	c-2.5,5.87-5.89,11.4-9.75,16.71c0.07,1.37,0.29,2.68,0.68,3.91c0.31,1,0.76,1.91,1.31,2.75
	C527.21,428.39,528.68,427.4,531.01,426.22z"/>
<path class="st126" d="M540.49,405.37l0.39,0.37v5.12c0.58-1.82,1.5-3.49,2.95-5.49H540.49z"/>
<path class="st126" d="M548.58,335.08c-0.13-0.2-0.26-0.4-0.39-0.59C548.32,334.68,548.45,334.88,548.58,335.08z"/>
<path class="st126" d="M548.58,335.08c0.41,0.6,0.8,1.21,1.19,1.82h0.03C549.41,336.28,548.99,335.68,548.58,335.08z"/>
<path class="st126" d="M548.19,334.48c-0.66-0.94-1.34-1.87-2.05-2.77C546.85,332.62,547.53,333.54,548.19,334.48z"/>
<path class="st126" d="M548.7,390.56h-10.72c-0.01,0.06-0.01,0.13-0.02,0.19c-0.31,2.97-0.89,5.85-1.68,8.66h10.48l0.09,0.01
	c0.56,0.08,1.07,0.22,1.5,0.42c0.86-0.99,1.82-2.08,2.87-3.27c1.49-1.68,2.79-3.18,3.93-4.56c-0.3-0.17-0.61-0.33-0.94-0.47
	C552.73,390.89,550.87,390.56,548.7,390.56z"/>
<path class="st126" d="M556.62,388.38c0.33,0.17,0.64,0.36,0.96,0.54c2.42-3.36,3.62-6.14,3.75-9.51c-0.01-0.6-0.02-1.21-0.04-1.82
	c-0.05-0.79-0.14-1.6-0.29-2.47c-0.19-1.09-0.37-2.16-0.55-3.22h-0.32v-1.84c-0.74-4.32-1.38-8.45-1.7-12.84
	c-1.86-7.15-4.7-14.07-8.65-20.33h-16.51c-0.6,0.07-1.07,0.24-1.4,0.49c-0.31,0.24-0.35,0.44-0.35,0.62v19.18
	c0,0.18,0.04,0.38,0.35,0.62c0.33,0.26,0.8,0.42,1.4,0.49h23.93v13.61h-20.71c1.25,4.97,1.83,10.03,1.72,14.88h10.5
	C551.82,386.79,554.48,387.32,556.62,388.38z"/>
<path class="st126" d="M535.83,369.55c0.23,0.78,0.44,1.57,0.64,2.36h0.01C536.28,371.12,536.06,370.33,535.83,369.55z"/>
<path class="st126" d="M531.16,391.34c-0.22,1.49-0.48,3-0.82,4.52c-0.26,1.17-0.58,2.36-0.94,3.55h6.89
	c-0.31,1.11-0.67,2.2-1.05,3.28c1.34-3.82,2.3-7.78,2.73-11.93c0.01-0.06,0.01-0.13,0.01-0.19h-1.83
	C534.23,390.56,532.55,390.83,531.16,391.34z"/>
<path class="st126" d="M538.2,386.79c0.11-4.85-0.47-9.91-1.72-14.88h-5.74c-0.08,0-0.16-0.01-0.24-0.01
	c1.17,4.78,1.55,9.96,1.12,15.43c1.39-0.35,2.89-0.54,4.53-0.54H538.2z"/>
<polygon class="st126" points="533.85,406.26 533.85,406.26 533.85,406.26 "/>
<path class="st126" d="M535.23,402.69c-0.04,0.12-0.08,0.23-0.12,0.35C535.15,402.92,535.19,402.8,535.23,402.69z"/>
<path class="st126" d="M521.57,429.87c-0.33-0.8-0.59-1.63-0.81-2.49c-0.48,0.61-0.97,1.21-1.45,1.81v11.13h-9.43
	c-3.19,3.66-6.37,7.28-9.34,10.9c-1.42,1.74-2.77,3.51-4.08,5.28c9.04-0.25,19.9-3.51,24.79-16.4c1.1-2.89,1.85-5.02,2.58-6.71
	C522.89,432.36,522.12,431.2,521.57,429.87z"/>
<path class="st126" d="M476.31,390.56v8.85h16.99c1.17-2.68,2.29-5.75,2.95-8.85H476.31z"/>
<path class="st126" d="M476.31,406.26v19.23c4.28-5.19,8.11-10.29,10.51-13.91v-5.33H476.31z"/>
<path class="st126" d="M520.08,419.42c-0.25,0.42-0.51,0.83-0.77,1.24v8.54c-3.05,3.78-6.25,7.48-9.43,11.13h-4.56
	c-4.74,6-9.42,11.49-13.33,16.09c1.41,0.1,2.91,0.14,4.46,0.09c1.32-1.78,2.67-3.55,4.08-5.28c6.41-7.81,13.74-15.59,20.22-23.84
	c-0.44-1.69-0.68-3.46-0.68-5.33V419.42z"/>
<path class="st126" d="M526.91,406.26c-0.85,2.01-1.8,4.02-2.84,6.04v9.75c0,0.3,0.02,0.6,0.03,0.9c3.85-5.3,7.25-10.82,9.75-16.69
	H526.91z"/>
<path class="st126" d="M524.07,412.3c1.04-2.01,1.99-4.03,2.84-6.04h-2.84V412.3z"/>
<path class="st126" d="M527.5,393.52c-0.96,0.89-1.72,1.96-2.26,3.17c-0.38,0.87-0.68,1.78-0.89,2.72h5.04
	c0.36-1.19,0.68-2.37,0.94-3.55c0.34-1.53,0.6-3.03,0.82-4.52c-0.03,0.01-0.06,0.02-0.08,0.03
	C529.66,391.9,528.46,392.62,527.5,393.52z"/>
<path class="st12" d="M499.72,438.14h-1.14v-32.76h-2.47c-0.95,1.88-1.94,3.75-2.99,5.58v29.36h-17.35l-2.31-2.18h-0.79
	c0,0-0.01,0.01-0.01,0.01c4.08,9.98,5.01,15.58,11.6,17.11c1.77,0.4,4.51,0.93,7.74,1.16c3.91-4.6,8.59-10.09,13.33-16.09h-3.3
	L499.72,438.14z"/>
<path class="st126" d="M486.82,420.99c-1.51,2.22-3.08,4.41-4.67,6.57c-1.76,2.39-3.72,4.63-5.76,6.79h10.44V420.99z"/>
<path class="st12" d="M508.03,345.23c0.85,0.37,1.67,0.77,2.48,1.19v-0.02C509.71,345.98,508.88,345.6,508.03,345.23z"/>
<path class="st126" d="M531.16,391.34c0.01-0.06,0.02-0.12,0.02-0.18C531.17,391.22,531.16,391.28,531.16,391.34
	C531.16,391.34,531.16,391.34,531.16,391.34z"/>
<polygon class="st126" points="509.91,434.36 509.91,434.36 509.91,434.36 "/>
<polygon class="st126" points="505.32,440.32 505.32,440.32 505.32,440.32 "/>
<path class="st126" d="M488.21,409.4c0.05-0.08,0.08-0.14,0.12-0.21C488.29,409.26,488.25,409.32,488.21,409.4z"/>
<path class="st126" d="M492.73,405.37l0.39,0.37v5.21c-0.93,1.62-1.89,3.22-2.88,4.8c2.45-3.9,4.7-7.91,6.68-12.03
	c-0.27,0.55-0.53,1.1-0.81,1.65H492.73z"/>
<path class="st126" d="M488.72,408.49c0.15-0.28,0.28-0.54,0.39-0.77C489.01,407.95,488.87,408.21,488.72,408.49z"/>
<path class="st126" d="M490.61,404.92c-0.01,0.03-0.03,0.05-0.04,0.08C490.58,404.97,490.6,404.94,490.61,404.92z"/>
<path class="st126" d="M492.74,400.67c0,0.01-0.01,0.02-0.01,0.03C492.73,400.69,492.74,400.68,492.74,400.67z"/>
<path class="st126" d="M490.19,405.68c-0.03,0.05-0.05,0.09-0.08,0.14C490.14,405.77,490.16,405.72,490.19,405.68z"/>
<path class="st126" d="M472.65,438.15c0,0,0.01-0.01,0.01-0.01h-0.02C472.65,438.14,472.65,438.14,472.65,438.15z"/>
<path class="st126" d="M476.31,425.5C476.31,425.5,476.31,425.5,476.31,425.5l0,8.86h0.07c2.05-2.17,4-4.41,5.76-6.79
	c1.6-2.16,3.16-4.35,4.67-6.57v-9.4C484.42,415.2,480.59,420.3,476.31,425.5z"/>
<path class="st126" d="M496.26,390.56C496.26,390.56,496.26,390.56,496.26,390.56c-0.66,3.1-1.78,6.17-2.95,8.85h5.59
	c-0.24,0.54-0.48,1.08-0.71,1.61c1.45-3.26,3.02-6.79,4.18-10.41c-0.46-0.03-0.93-0.06-1.42-0.06H496.26z"/>
<path class="st126" d="M496.59,388.71c0-0.02,0.01-0.05,0.01-0.07C496.6,388.67,496.6,388.69,496.59,388.71z"/>
<path class="st126" d="M489.82,406.33c-0.03,0.05-0.06,0.1-0.08,0.14C489.76,406.43,489.79,406.38,489.82,406.33z"/>
<path class="st126" d="M490.11,405.81c-0.1,0.19-0.2,0.36-0.29,0.52C489.91,406.17,490.01,406,490.11,405.81z"/>
<polygon class="st126" points="486.82,420.99 486.82,420.99 486.82,420.99 "/>
<path class="st126" d="M498.18,401.03c-0.4,0.91-0.83,1.8-1.26,2.7C497.35,402.83,497.78,401.93,498.18,401.03z"/>
<path class="st126" d="M490.57,404.99c-0.13,0.24-0.26,0.47-0.38,0.68C490.31,405.46,490.44,405.24,490.57,404.99z"/>
<path class="st126" d="M490.24,415.76c-0.14,0.22-0.28,0.44-0.42,0.66C489.96,416.2,490.1,415.98,490.24,415.76z"/>
<path class="st126" d="M489.74,406.47c-0.11,0.19-0.21,0.36-0.3,0.5C489.53,406.83,489.63,406.66,489.74,406.47z"/>
<path class="st126" d="M488.33,409.18c0.14-0.24,0.28-0.48,0.39-0.69C488.61,408.71,488.47,408.94,488.33,409.18z"/>
<polygon class="st126" points="476.38,434.36 476.38,434.36 476.38,434.36 "/>
<path class="st126" d="M496.26,390.56c0.13-0.62,0.24-1.23,0.34-1.85C496.5,389.33,496.39,389.94,496.26,390.56z"/>
<path class="st126" d="M512.3,398.04c-0.46-1.46-1.18-2.76-2.15-3.86c-0.96-1.09-2.21-1.98-3.7-2.63c-1.15-0.51-2.53-0.81-4.1-0.93
	c0.01-0.03,0.02-0.05,0.02-0.08c-0.97,3.06-2.24,6.05-3.48,8.87H499l0.09,0.01c2.21,0.31,3.48,1.56,3.48,3.45v31.49h7.34
	c1.05-1.4,2.08-2.82,3.1-4.26v-27.23C513.01,401.17,512.77,399.54,512.3,398.04z"/>
<path class="st12" d="M530.46,371.9c-2.85-0.02-5.37-0.41-7.48-1.16c-2.19-0.78-4.03-1.86-5.44-3.2c-1.42-1.35-2.48-2.94-3.14-4.73
	c-0.64-1.75-0.97-3.65-0.97-5.63v-9.11c-0.94-0.59-1.93-1.14-2.93-1.67v25.49h-8.72c0.87,1.57,1.52,3.33,1.9,5.23
	c0.63,3.22,0.39,6.51-0.32,9.77c2.09,0.21,3.93,0.7,5.49,1.47c2.1,1.04,3.83,2.46,5.13,4.2l0.79,0.75c1.57,1.49,2.74,3.29,3.47,5.36
	c0.71,2.02,1.07,4.23,1.07,6.57v15.39c0.25-0.41,0.52-0.82,0.77-1.23v-16.22h-0.22l0.16-1.27c0.25-2.04,0.75-3.99,1.48-5.77
	c0.75-1.83,1.8-3.45,3.12-4.83c1.33-1.38,2.97-2.5,4.87-3.31c0.66-0.28,1.38-0.5,2.13-0.69
	C532.03,381.86,531.63,376.68,530.46,371.9z"/>
<path class="st126" d="M516.58,424.9c-0.22,0.34-0.45,0.68-0.67,1.01C516.14,425.57,516.36,425.24,516.58,424.9z"/>
<path class="st126" d="M503.36,386.91c-0.27,1.22-0.6,2.43-0.98,3.63C502.76,389.34,503.1,388.13,503.36,386.91
	C503.36,386.91,503.36,386.91,503.36,386.91z"/>
<path class="st126" d="M496.81,386.79c-0.04,0.61-0.11,1.23-0.21,1.86C496.7,388.02,496.77,387.4,496.81,386.79L496.81,386.79z"/>
<path class="st126" d="M472.32,437.36v-7.15c-0.26,0.29-0.51,0.58-0.77,0.87v4.47C471.81,436.16,472.07,436.77,472.32,437.36z"/>
<path class="st126" d="M456.73,390.56h-0.19c0.01,0.05,0.01,0.1,0.02,0.15C456.62,390.67,456.67,390.61,456.73,390.56z"/>
<path class="st126" d="M503.69,377.14c-0.37-1.91-1.02-3.66-1.9-5.23h-9.34v-7.26c-1.99-0.5-4.17-0.64-6.52-0.35
	c-0.2,0.03-0.4,0.06-0.61,0.09l5.22,7.52h-20.6l-0.12-0.17c-1.48,1.24-2.89,2.58-4.24,3.98c-3.29,3.42-6.41,6.96-9.52,10.5
	c0.02,0.18,0.04,0.38,0.05,0.56h4.7c3.59-3.37,7.13-7.15,11.12-9.99c5.49-3.9,13.39-5.5,19.64-1.83c4.39,2.58,5.6,7.02,5.25,11.82
	h4.12c0.84,0,1.65,0.05,2.42,0.13C504.07,383.65,504.32,380.36,503.69,377.14z"/>
<path class="st126" d="M465.25,406.26h-5.45c0.79,2.88,1.73,5.86,2.82,8.92h2.64V406.26z"/>
<path class="st126" d="M465.25,390.56h-8.52c1-0.94,2-1.87,3.01-2.79c-1.07,0.97-2.13,1.96-3.18,2.95c0.38,2.69,0.88,5.61,1.55,8.7
	h7.14V390.56z"/>
<path class="st126" d="M491.56,374.97c-6.25-3.67-14.15-2.07-19.64,1.83c-3.99,2.84-7.54,6.62-11.12,9.99h8.44v1.08l2.31,2.18v15.33
	h-0.39l0.39,0.37v15.4h-6.65c0.07,0.17,0.14,0.35,0.21,0.52h4.13v1.08l2.31,2.18v6.16c0.26-0.29,0.51-0.58,0.77-0.87v-43.42h24.49
	C497.16,381.99,495.95,377.54,491.56,374.97z"/>
<g>
	<path class="st12" d="M382.98,437v-33.38h2.09l-1.66-1.57h-0.43v-14.13h27.42c2.93,0,5.39,0.49,7.36,1.47s3.56,2.29,4.76,3.93
		l0.87,0.82c1.44,1.37,2.5,3,3.17,4.91c0.67,1.91,1.01,3.98,1.01,6.21v33.92h-15.58l-2.31-2.18h-0.43v-32.76h-9.96l2.09,1.98v32.97
		h-15.66l-2.31-2.18H382.98z M423.67,435.5v-32.63c0-1.82-0.25-3.54-0.76-5.15c-0.51-1.62-1.3-3.04-2.38-4.27
		c-1.08-1.23-2.45-2.21-4.11-2.94c-1.66-0.73-3.67-1.09-6.02-1.09h-25.83v11.13h23.81c1.64,0.23,2.45,1,2.45,2.32v32.63H423.67z
		 M397.48,435.5v-30.37h-12.91v30.37H397.48z"/>
	<path class="st12" d="M528.21,435.57l-0.87-0.75c-2.16-1.32-3.72-3.11-4.65-5.36c-0.94-2.25-1.41-4.72-1.41-7.41v-18.43h2.02
		l-1.66-1.57h-0.43c0.24-1.96,0.71-3.79,1.41-5.49c0.7-1.71,1.66-3.2,2.89-4.47c1.23-1.27,2.72-2.29,4.47-3.04s3.81-1.13,6.17-1.13
		h12.55c2.93,0,5.39,0.49,7.36,1.47c1.97,0.98,3.56,2.29,4.76,3.93l0.87,0.82c1.44,1.37,2.5,3,3.18,4.91
		c0.67,1.91,1.01,3.98,1.01,6.21v19.11c0,2-0.28,3.9-0.83,5.7c-0.55,1.8-1.42,3.37-2.6,4.71c-1.18,1.34-2.69,2.41-4.54,3.21
		c-1.85,0.8-4.08,1.19-6.67,1.19h-12.55c-2.4,0-4.45-0.32-6.13-0.96C530.85,437.59,529.41,436.7,528.21,435.57z M546.68,424.3h-8.44
		c-1.63-0.23-2.45-0.98-2.45-2.25v-16.93h-12.91v16.93c0,1.82,0.25,3.54,0.76,5.15s1.3,3.04,2.38,4.27
		c1.08,1.23,2.45,2.21,4.11,2.94c1.66,0.73,3.67,1.09,6.03,1.09h12.55c2.36,0,4.36-0.36,6.02-1.09c1.66-0.73,3.03-1.71,4.11-2.94
		c1.08-1.23,1.88-2.65,2.38-4.27s0.76-3.33,0.76-5.15v-19.18c0-1.82-0.25-3.54-0.76-5.15s-1.3-3.04-2.38-4.27
		c-1.08-1.23-2.45-2.21-4.11-2.94c-1.66-0.73-3.67-1.09-6.02-1.09h-12.55c-2.12,0-3.96,0.3-5.52,0.89
		c-1.56,0.59-2.89,1.39-3.97,2.39c-1.08,1-1.92,2.18-2.52,3.55c-0.6,1.36-1,2.8-1.19,4.3h23.74c1.64,0.23,2.45,1,2.45,2.32v19.18
		C549.13,423.33,548.31,424.08,546.68,424.3z M539.68,406.22v16.59h6.78c0.72-0.09,1.08-0.34,1.08-0.75v-17.81h-9.96L539.68,406.22z
		"/>
	<path class="st12" d="M473.52,437v-33.38h2.09l-1.66-1.57h-0.43v-14.13h27.42c2.93,0,5.39,0.49,7.36,1.47
		c1.97,0.98,3.56,2.29,4.76,3.93l0.87,0.82c1.44,1.37,2.5,3,3.17,4.91c0.67,1.91,1.01,3.98,1.01,6.21v33.92h-15.58l-2.31-2.18h-0.43
		v-32.76h-9.96l2.09,1.98v32.97h-15.65l-2.31-2.18H473.52z M514.21,435.5v-32.63c0-1.82-0.25-3.54-0.76-5.15
		c-0.51-1.62-1.3-3.04-2.38-4.27c-1.08-1.23-2.45-2.21-4.11-2.94c-1.66-0.73-3.67-1.09-6.02-1.09h-25.83v11.13h23.81
		c1.63,0.23,2.45,1,2.45,2.32v32.63H514.21z M488.02,435.5v-30.37h-12.91v30.37H488.02z"/>
	<path class="st12" d="M449.06,422.8h18.97v0.41l2.31,2.18v13.79h-36.87l-2.31-2.18h-0.43v-33.38h2.09l-1.66-1.57h-0.43v-14.13h37.3
		v0.41l2.31,2.18v13.72h-2.09l2.09,1.98V420h-21.28V422.8z M466.45,400.55v-11.13h-34.12v11.13H466.45z M466.45,416.32v-11.19
		h-34.12v30.37h34.12V424.3h-21.28v-7.99H466.45z"/>
</g>
<path class="st12" d="M531.09,336.51c0.53-0.41,1.23-0.66,2.09-0.75h22.8v-11.33h-25.25c-2.84,0-5.28,0.36-7.32,1.09
	c-2.04,0.73-3.72,1.71-5.01,2.94c-1.3,1.23-2.25,2.67-2.85,4.33c-0.6,1.66-0.9,3.4-0.9,5.22v19.18c0,1.87,0.3,3.62,0.9,5.26
	c0.6,1.64,1.55,3.07,2.85,4.3c1.3,1.23,2.97,2.21,5.01,2.94c2.04,0.73,4.48,1.09,7.32,1.09h25.25v-11.33h-22.8
	c-0.87-0.09-1.56-0.34-2.09-0.75c-0.53-0.41-0.79-0.91-0.79-1.5v-19.18C530.3,337.42,530.57,336.92,531.09,336.51z"/>
<g>
	<path class="st12" d="M345.58,479.79v-7.3h18.97c1.73,0,3.22,0.23,4.47,0.7c1.25,0.47,2.27,1.1,3.06,1.89s1.37,1.72,1.74,2.79
		c0.37,1.07,0.55,2.19,0.55,3.37c0,1.12-0.18,2.19-0.55,3.23c-0.37,1.04-0.95,1.97-1.74,2.79c-0.79,0.82-1.81,1.47-3.06,1.96
		c-1.25,0.48-2.74,0.73-4.47,0.73h-9.42v12.41h-9.55v-19.71h17.47c0.56,0,0.99-0.13,1.3-0.4c0.31-0.26,0.46-0.6,0.46-1.01
		c0-0.38-0.16-0.7-0.48-0.97c-0.32-0.26-0.75-0.43-1.28-0.48H345.58z"/>
	<path class="st12" d="M377.61,472.49h18.97c1.73,0,3.22,0.23,4.47,0.7c1.25,0.47,2.27,1.1,3.06,1.89s1.37,1.72,1.74,2.79
		c0.37,1.07,0.55,2.19,0.55,3.37c0,1-0.15,1.97-0.46,2.93c-0.31,0.95-0.78,1.82-1.43,2.6s-1.47,1.44-2.46,1.98s-2.19,0.9-3.56,1.08
		l8.23,12.54h-10.83l-8.71-12.54v12.54h-9.55v-19.71h17.47c0.56,0,0.99-0.13,1.3-0.4c0.31-0.26,0.46-0.6,0.46-1.01
		c0-0.38-0.16-0.7-0.48-0.97c-0.32-0.26-0.75-0.43-1.28-0.48h-17.47V472.49z"/>
	<path class="st12" d="M427.46,495.06c0.53-0.06,0.95-0.22,1.28-0.48s0.48-0.59,0.48-0.97v-12.37c0-0.38-0.16-0.7-0.48-0.97
		c-0.32-0.26-0.75-0.43-1.28-0.48h-17.47c0.15-1,0.44-1.94,0.88-2.84c0.44-0.89,1.06-1.67,1.85-2.33c0.79-0.66,1.77-1.18,2.93-1.56
		c1.16-0.38,2.53-0.57,4.11-0.57h9.2c1.73,0,3.22,0.23,4.47,0.7c1.25,0.47,2.27,1.1,3.06,1.89s1.37,1.72,1.74,2.79
		c0.37,1.07,0.55,2.19,0.55,3.37v12.37c0,1.2-0.18,2.33-0.55,3.39c-0.37,1.06-0.95,1.98-1.74,2.77s-1.81,1.42-3.06,1.89
		c-1.25,0.47-2.74,0.7-4.47,0.7h-9.2c-1.73,0-3.22-0.23-4.47-0.7c-1.25-0.47-2.27-1.1-3.06-1.89s-1.37-1.72-1.74-2.77
		c-0.37-1.06-0.55-2.19-0.55-3.39v-10.96h9.59v10.96c0,0.38,0.16,0.7,0.48,0.97s0.75,0.43,1.28,0.48H427.46z"/>
	<path class="st12" d="M459.54,495.06c0.53-0.06,0.95-0.22,1.28-0.48s0.48-0.59,0.48-0.97v-21.12h9.55v21.12
		c0,1.2-0.18,2.33-0.55,3.39c-0.37,1.06-0.95,1.98-1.74,2.77s-1.81,1.42-3.06,1.89c-1.25,0.47-2.74,0.7-4.47,0.7h-9.2
		c-1.73,0-3.22-0.23-4.47-0.7c-1.25-0.47-2.27-1.1-3.06-1.89s-1.37-1.72-1.74-2.77c-0.37-1.06-0.55-2.19-0.55-3.39v-10.96h9.55
		v10.96c0,0.38,0.16,0.7,0.48,0.97s0.75,0.43,1.28,0.48H459.54z M451.57,479.79h-9.55v-7.3h9.55V479.79z"/>
	<path class="st12" d="M483.91,502.37c-1.73,0-3.22-0.23-4.47-0.7c-1.25-0.47-2.27-1.1-3.06-1.89s-1.37-1.72-1.74-2.77
		c-0.37-1.06-0.55-2.19-0.55-3.39v-10.96h9.55v10.96c0,0.38,0.16,0.7,0.48,0.97s0.75,0.43,1.28,0.48h13.91v7.3H483.91z
		 M474.14,479.79c0.15-1,0.44-1.94,0.88-2.84c0.44-0.89,1.06-1.67,1.85-2.33c0.79-0.66,1.77-1.18,2.93-1.56
		c1.16-0.38,2.53-0.57,4.11-0.57h15.4v7.3H474.14z"/>
	<path class="st12" d="M502.57,472.49h25.17v7.3h-25.17V472.49z M510.35,482.65h9.59v19.71h-9.59V482.65z"/>
	<path class="st12" d="M540.54,479.79h-9.55v-7.3h9.55V479.79z M540.54,502.37h-9.55v-19.71h9.55V502.37z"/>
	<path class="st12" d="M561.31,495.06c0.53-0.06,0.95-0.22,1.28-0.48s0.48-0.59,0.48-0.97v-12.37c0-0.38-0.16-0.7-0.48-0.97
		c-0.32-0.26-0.75-0.43-1.28-0.48h-17.47c0.15-1,0.44-1.94,0.88-2.84c0.44-0.89,1.06-1.67,1.85-2.33c0.79-0.66,1.77-1.18,2.93-1.56
		c1.16-0.38,2.53-0.57,4.11-0.57h9.2c1.73,0,3.22,0.23,4.47,0.7c1.25,0.47,2.27,1.1,3.06,1.89s1.37,1.72,1.74,2.79
		c0.37,1.07,0.55,2.19,0.55,3.37v12.37c0,1.2-0.18,2.33-0.55,3.39c-0.37,1.06-0.95,1.98-1.74,2.77s-1.81,1.42-3.06,1.89
		c-1.25,0.47-2.74,0.7-4.47,0.7h-9.2c-1.73,0-3.22-0.23-4.47-0.7c-1.25-0.47-2.27-1.1-3.06-1.89c-0.79-0.79-1.37-1.72-1.74-2.77
		c-0.37-1.06-0.55-2.19-0.55-3.39v-10.96h9.59v10.96c0,0.38,0.16,0.7,0.48,0.97c0.32,0.26,0.75,0.43,1.28,0.48H561.31z"/>
	<path class="st12" d="M595.1,502.37l-9.68-14.21v14.21h-9.55v-19.71h16.33l2.9,4.36v-14.52h9.55v29.88H595.1z M575.87,479.79v-7.3
		h9.55l4.84,7.3H575.87z"/>
</g>
</svg>